<?xml version="1.0" encoding="utf-8"?>
<!-- Generator: Adobe Illustrator 27.5.0, SVG Export Plug-In . SVG Version: 6.00 Build 0)  -->
<svg version="1.1" xmlns="http://www.w3.org/2000/svg" xmlns:xlink="http://www.w3.org/1999/xlink" x="0px" y="0px"
	 viewBox="0 0 500 500" style="enable-background:new 0 0 500 500;" xml:space="preserve">
<g id="BACKGROUND">
	<rect style="fill:#52BCC1;" width="500" height="500"/>
</g>
<g id="DESIGNED_BY_FREEPIK">
	<g>
		<g id="XMLID_319_">
			<g id="XMLID_338_">
				<path id="XMLID_346_" style="fill:#1D262D;" d="M260.103,467.15c-0.432,0.443-0.803,0.932-1.107,1.453l-0.465-0.241
					c-0.068-0.297-0.35-0.502-0.66-0.466c-0.33,0.039-0.566,0.339-0.529,0.67c0.039,0.331,0.34,0.567,0.67,0.528
					c0.066-0.007,0.127-0.025,0.184-0.052l0.451,0.234c-0.25,0.554-0.432,1.139-0.539,1.743l0.748,0.132
					c0.229-1.306,0.85-2.507,1.791-3.473L260.103,467.15z"/>
				<path id="XMLID_345_" style="fill:#1D262D;" d="M265.592,464.849c-0.172,0-0.342,0.006-0.51,0.017l-0.074-0.626
					c0.188-0.149,0.297-0.389,0.266-0.645c-0.045-0.393-0.402-0.674-0.795-0.628c-0.393,0.046-0.674,0.402-0.627,0.796
					c0.029,0.254,0.189,0.461,0.404,0.564l0.072,0.624c-0.713,0.116-1.402,0.332-2.059,0.646l0.326,0.685
					c0.936-0.447,1.941-0.674,2.996-0.674c0.496,0,0.992,0.053,1.475,0.158l0.16-0.741
					C266.691,464.907,266.143,464.849,265.592,464.849z"/>
				<path id="XMLID_344_" style="fill:#1D262D;" d="M272.193,467.396c0.332-0.04,0.566-0.341,0.525-0.672
					c-0.039-0.331-0.34-0.566-0.672-0.525c-0.309,0.038-0.535,0.304-0.529,0.608l-0.416,0.363c-0.418-0.43-0.891-0.813-1.408-1.14
					l-0.404,0.642c1.135,0.715,2.021,1.727,2.564,2.925l0.69-0.313c-0.25-0.554-0.566-1.071-0.941-1.545l0.402-0.351
					C272.064,467.4,272.129,467.404,272.193,467.396z"/>
				<path id="XMLID_343_" style="fill:#1D262D;" d="M265.045,475.057c-0.387,0.023-0.775,0.035-1.158,0.035
					c-0.879,0-1.732-0.06-2.478-0.18c-0.391-0.062-0.846-0.154-1.27-0.292c1.047,1.861,3.068,3.125,5.389,3.125
					c2.855,0,5.262-1.916,5.949-4.503c-0.682,0.449-1.506,0.825-2.459,1.122C267.838,474.732,266.463,474.972,265.045,475.057z"/>
				<path id="XMLID_339_" style="fill:#1D262D;" d="M265.592,466.365c-3.352,0-6.08,2.666-6.08,5.943
					c0,0.425,0.047,0.849,0.137,1.261c0.674,0.483,2.707,0.891,5.348,0.732c2.881-0.174,5.297-0.958,6.672-2.159
					c-0.004-0.194-0.02-0.39-0.045-0.581C271.244,468.599,268.65,466.365,265.592,466.365z M263.432,472.88
					c-1.02,0-1.85-0.83-1.85-1.85c0-1.021,0.83-1.851,1.85-1.851c1.02,0,1.85,0.83,1.85,1.851
					C265.281,472.05,264.451,472.88,263.432,472.88z M268.17,471.972c-0.75,0-1.361-0.61-1.361-1.36s0.611-1.36,1.361-1.36
					s1.359,0.61,1.359,1.36S268.92,471.972,268.17,471.972z"/>
			</g>
			<path id="XMLID_336_" style="fill:#1D262D;" d="M281.596,468.232c-0.295-0.116-0.807-0.309-1.383-0.238
				c-0.551,0.069-0.844,0.341-0.844,1.007v0.866h2.229v1.717h-2.229v5.455h-1.932v-5.455h-1.34v-1.717h1.34v-0.889
				c0-1.68,0.895-2.782,2.568-2.782c0.643,0,1.156,0.121,1.59,0.308V468.232z"/>
			<path id="XMLID_334_" style="fill:#1D262D;" d="M286.297,471.564c-0.176-0.029-0.357-0.046-0.525-0.046
				c-0.894,0-1.51,0.548-1.51,1.613v3.908h-1.932v-7.172h1.873v0.784c0.451-0.673,1.139-0.977,2.02-0.977
				c0.414,0,0.848,0.128,1.096,0.337L286.297,471.564z"/>
			<path id="XMLID_331_" style="fill:#1D262D;" d="M293.965,473.442c0,0.222-0.016,0.488-0.037,0.651h-5.084
				c0.207,1.036,0.932,1.487,1.842,1.487c0.623,0,1.295-0.252,1.815-0.688l1.133,1.243c-0.814,0.748-1.852,1.089-3.057,1.089
				c-2.199,0-3.725-1.496-3.725-3.753c0-2.258,1.48-3.797,3.627-3.797C292.543,469.675,293.957,471.207,293.965,473.442z
				 M288.852,472.776h3.174c-0.178-0.918-0.732-1.437-1.561-1.437C289.555,471.34,289.021,471.888,288.852,472.776z"/>
			<path id="XMLID_328_" style="fill:#1D262D;" d="M301.619,473.442c0,0.222-0.016,0.488-0.037,0.651h-5.086
				c0.207,1.036,0.934,1.487,1.844,1.487c0.621,0,1.295-0.252,1.813-0.688l1.133,1.243c-0.814,0.748-1.85,1.089-3.057,1.089
				c-2.199,0-3.723-1.496-3.723-3.753c0-2.258,1.48-3.797,3.627-3.797C300.197,469.675,301.611,471.207,301.619,473.442z
				 M296.504,472.776h3.176c-0.178-0.918-0.734-1.437-1.563-1.437C297.207,471.34,296.674,471.888,296.504,472.776z"/>
			<path id="XMLID_325_" style="fill:#1D262D;" d="M309.965,473.449c0,2.154-1.496,3.775-3.473,3.775
				c-0.961,0-1.643-0.378-2.109-0.933V480h-1.924v-10.133h1.887v0.792c0.467-0.585,1.154-0.984,2.139-0.984
				C308.469,469.675,309.965,471.296,309.965,473.449z M304.287,473.449c0,1.133,0.748,1.977,1.844,1.977
				c1.139,0,1.85-0.881,1.85-1.977c0-1.095-0.711-1.976-1.85-1.976C305.035,471.474,304.287,472.317,304.287,473.449z"/>
			<path id="XMLID_322_" style="fill:#1D262D;" d="M313.068,467.521c0,0.696-0.541,1.229-1.236,1.229
				c-0.697,0-1.229-0.533-1.229-1.229c0-0.695,0.531-1.243,1.229-1.243C312.527,466.277,313.068,466.825,313.068,467.521z
				 M312.809,477.039h-1.932v-7.172h1.932V477.039z"/>
			<path id="XMLID_320_" style="fill:#1D262D;" d="M316.031,472.421l2.703-2.554h2.367l-3.479,3.375l3.502,3.797h-2.377
				l-2.717-2.901v2.901H314.1v-10.658h1.932V472.421z"/>
		</g>
		<g>
			<path style="fill:#1D262D;" d="M184.412,476.975v-1.055c-0.527,0.718-1.391,1.23-2.387,1.23c-1.846,0-3.15-1.406-3.15-3.706
				c0-2.256,1.289-3.721,3.15-3.721c0.951,0,1.816,0.469,2.387,1.245v-3.765h1.1v9.771H184.412z M184.412,475.056v-3.208
				c-0.395-0.615-1.244-1.143-2.123-1.143c-1.422,0-2.271,1.172-2.271,2.739c0,1.567,0.85,2.725,2.271,2.725
				C183.168,476.169,184.018,475.671,184.412,475.056z"/>
			<path style="fill:#1D262D;" d="M186.932,473.43c0-2.051,1.465-3.706,3.486-3.706c2.139,0,3.398,1.67,3.398,3.794v0.278h-5.727
				c0.088,1.333,1.025,2.446,2.549,2.446c0.805,0,1.625-0.322,2.182-0.894l0.527,0.718c-0.703,0.703-1.654,1.084-2.813,1.084
				C188.441,477.15,186.932,475.642,186.932,473.43z M190.404,470.632c-1.51,0-2.256,1.275-2.314,2.358h4.643
				C192.719,471.935,192.016,470.632,190.404,470.632z"/>
			<path style="fill:#1D262D;" d="M194.607,476.037l0.57-0.791c0.469,0.542,1.363,1.011,2.33,1.011c1.084,0,1.67-0.513,1.67-1.216
				c0-1.714-4.381-0.659-4.381-3.281c0-1.099,0.953-2.036,2.637-2.036c1.201,0,2.051,0.454,2.623,1.025l-0.514,0.762
				c-0.424-0.513-1.201-0.894-2.109-0.894c-0.967,0-1.566,0.483-1.566,1.113c0,1.553,4.379,0.527,4.379,3.281
				c0,1.187-0.951,2.139-2.783,2.139C196.307,477.15,195.324,476.799,194.607,476.037z"/>
			<path style="fill:#1D262D;" d="M201.477,468.156c0-0.41,0.338-0.747,0.732-0.747c0.41,0,0.748,0.337,0.748,0.747
				c0,0.41-0.338,0.732-0.748,0.732C201.814,468.889,201.477,468.566,201.477,468.156z M201.668,476.975v-7.075h1.098v7.075H201.668
				z"/>
			<path style="fill:#1D262D;" d="M204.582,478.791l0.557-0.82c0.586,0.703,1.289,0.967,2.299,0.967
				c1.172,0,2.271-0.571,2.271-2.124v-1.011c-0.514,0.718-1.377,1.26-2.373,1.26c-1.846,0-3.15-1.377-3.15-3.662
				c0-2.27,1.289-3.677,3.15-3.677c0.951,0,1.801,0.469,2.373,1.245v-1.069h1.098v6.87c0,2.344-1.641,3.076-3.369,3.076
				C206.236,479.846,205.416,479.61,204.582,478.791z M209.709,474.939v-3.091c-0.381-0.615-1.23-1.143-2.109-1.143
				c-1.422,0-2.27,1.128-2.27,2.695c0,1.553,0.848,2.695,2.27,2.695C208.479,476.096,209.328,475.554,209.709,474.939z"/>
			<path style="fill:#1D262D;" d="M217.414,476.975v-4.629c0-1.245-0.631-1.641-1.582-1.641c-0.865,0-1.686,0.527-2.096,1.099v5.171
				h-1.098v-7.075h1.098v1.025c0.498-0.586,1.465-1.201,2.52-1.201c1.48,0,2.256,0.747,2.256,2.285v4.966H217.414z"/>
			<path style="fill:#1D262D;" d="M219.932,473.43c0-2.051,1.465-3.706,3.486-3.706c2.139,0,3.398,1.67,3.398,3.794v0.278h-5.727
				c0.088,1.333,1.025,2.446,2.549,2.446c0.805,0,1.625-0.322,2.182-0.894l0.527,0.718c-0.703,0.703-1.654,1.084-2.813,1.084
				C221.441,477.15,219.932,475.642,219.932,473.43z M223.404,470.632c-1.51,0-2.256,1.275-2.314,2.358h4.643
				C225.719,471.935,225.016,470.632,223.404,470.632z"/>
			<path style="fill:#1D262D;" d="M233.35,476.975v-1.055c-0.527,0.718-1.391,1.23-2.387,1.23c-1.846,0-3.15-1.406-3.15-3.706
				c0-2.256,1.289-3.721,3.15-3.721c0.951,0,1.816,0.469,2.387,1.245v-3.765h1.1v9.771H233.35z M233.35,475.056v-3.208
				c-0.395-0.615-1.244-1.143-2.123-1.143c-1.422,0-2.271,1.172-2.271,2.739c0,1.567,0.85,2.725,2.271,2.725
				C232.105,476.169,232.955,475.671,233.35,475.056z"/>
			<path style="fill:#1D262D;" d="M239.691,476.975v-9.771h1.1v3.765c0.57-0.776,1.42-1.245,2.387-1.245
				c1.846,0,3.15,1.465,3.15,3.721c0,2.3-1.305,3.706-3.15,3.706c-0.996,0-1.859-0.513-2.387-1.23v1.055H239.691z M242.9,476.169
				c1.436,0,2.285-1.157,2.285-2.725c0-1.567-0.85-2.739-2.285-2.739c-0.865,0-1.729,0.527-2.109,1.143v3.208
				C241.172,475.671,242.035,476.169,242.9,476.169z"/>
			<path style="fill:#1D262D;" d="M247.529,478.747c0.16,0.073,0.424,0.117,0.6,0.117c0.484,0,0.807-0.161,1.055-0.747l0.469-1.069
				l-2.959-7.148h1.188l2.357,5.801l2.344-5.801h1.201l-3.545,8.511c-0.424,1.024-1.143,1.421-2.08,1.436
				c-0.234,0-0.6-0.044-0.805-0.104L247.529,478.747z"/>
		</g>
	</g>
</g>
<g id="OBJECTS">
	<ellipse style="opacity:0.1;fill:#070707;" cx="250" cy="317.571" rx="196" ry="21.508"/>
	<g>
		<path style="fill:#074E7C;" d="M370.574,270c0,6.6-5.4,12-12,12H141.425c-6.6,0-12-5.4-12-12V130c0-6.6,5.4-12,12-12h217.149
			c6.6,0,12,5.4,12,12V270z"/>
		<rect x="138" y="127.067" style="fill:#CDE9FE;" width="224" height="142.864"/>
		<g>
			<polygon style="fill:#166C9B;" points="290.5,314 209.5,314 216.5,282 283.5,282 			"/>
			<g>
				<path style="fill:#074E7C;" d="M205.5,319c27,0,62,0,89,0c6.448,0,6.448-10,0-10c-27,0-62,0-89,0
					C199.051,309,199.051,319,205.5,319L205.5,319z"/>
			</g>
		</g>
	</g>
	<g>
		<g>
			<g>
				<path style="fill:#F7F7F7;" d="M236.97,216.66c0,1.954-1.6,3.555-3.555,3.555H119.264c-1.955,0-3.555-1.6-3.555-3.555v-78.996
					c0-1.955,1.6-3.555,3.555-3.555h114.151c1.955,0,3.555,1.6,3.555,3.555V216.66z"/>
				<path style="fill:#45A3C4;" d="M233.415,134.109H119.264c-1.955,0-3.555,1.6-3.555,3.555v11.453H236.97v-11.453
					C236.97,135.709,235.37,134.109,233.415,134.109z"/>
			</g>
			<g>
				<path style="fill:#F46042;" d="M126.437,141.739c0,1.871-1.517,3.388-3.388,3.388c-1.871,0-3.388-1.517-3.388-3.388
					c0-1.871,1.517-3.388,3.388-3.388C124.919,138.351,126.437,139.868,126.437,141.739z"/>
				<path style="fill:#F2D144;" d="M137.862,141.739c0,1.871-1.517,3.388-3.388,3.388c-1.871,0-3.388-1.517-3.388-3.388
					c0-1.871,1.517-3.388,3.388-3.388C136.345,138.351,137.862,139.868,137.862,141.739z"/>
				<path style="fill:#4BDBB9;" d="M149.287,141.739c0,1.871-1.517,3.388-3.388,3.388c-1.871,0-3.388-1.517-3.388-3.388
					c0-1.871,1.517-3.388,3.388-3.388C147.77,138.351,149.287,139.868,149.287,141.739z"/>
			</g>
		</g>
		<g>
			<rect x="122.851" y="156.231" style="fill:#E6E7E9;" width="106.978" height="30.314"/>
			<g>
				<g>
					<g>
						<rect x="122.851" y="193.358" style="fill:#D7DADD;" width="35.913" height="3.259"/>
						<rect x="122.851" y="199.283" style="fill:#D7DADD;" width="35.913" height="3.259"/>
					</g>
					<g>
						<rect x="122.851" y="205.208" style="fill:#D7DADD;" width="35.913" height="3.259"/>
						<rect x="122.851" y="211.133" style="fill:#D7DADD;" width="35.913" height="3.258"/>
					</g>
				</g>
				<rect x="164.688" y="193.358" style="fill:#D7DADD;" width="34.067" height="21.033"/>
				<g>
					<g>
						<rect x="204.384" y="193.358" style="fill:#D7DADD;" width="25.445" height="3.259"/>
						<rect x="204.384" y="199.283" style="fill:#D7DADD;" width="25.445" height="3.259"/>
					</g>
					<g>
						<rect x="204.384" y="205.208" style="fill:#D7DADD;" width="25.445" height="3.259"/>
						<rect x="204.384" y="211.133" style="fill:#D7DADD;" width="25.445" height="3.258"/>
					</g>
				</g>
			</g>
		</g>
	</g>
	<g>
		<g>
			<g>
				<path style="fill:#F7F7F7;" d="M384.291,233.115c0,1.954-1.6,3.555-3.555,3.555H266.585c-1.955,0-3.555-1.601-3.555-3.555
					v-78.997c0-1.955,1.6-3.555,3.555-3.555h114.151c1.955,0,3.555,1.6,3.555,3.555V233.115z"/>
				<path style="fill:#5F65C5;" d="M380.736,150.564H266.585c-1.955,0-3.555,1.6-3.555,3.555v11.453h121.261v-11.453
					C384.291,152.164,382.691,150.564,380.736,150.564z"/>
			</g>
			<g>
				<path style="fill:#F46042;" d="M273.758,158.193c0,1.871-1.518,3.388-3.388,3.388c-1.871,0-3.388-1.517-3.388-3.388
					c0-1.871,1.517-3.388,3.388-3.388C272.24,154.806,273.758,156.323,273.758,158.193z"/>
				<path style="fill:#F2D144;" d="M285.184,158.193c0,1.871-1.518,3.388-3.389,3.388s-3.388-1.517-3.388-3.388
					c0-1.871,1.517-3.388,3.388-3.388S285.184,156.323,285.184,158.193z"/>
				<path style="fill:#4BDBB9;" d="M296.607,158.193c0,1.871-1.517,3.388-3.387,3.388c-1.871,0-3.389-1.517-3.389-3.388
					c0-1.871,1.518-3.388,3.389-3.388C295.091,154.806,296.607,156.323,296.607,158.193z"/>
			</g>
		</g>
		<g>
			<rect x="270.172" y="172.686" style="fill:#E6E7E9;" width="106.979" height="20.777"/>
			<rect x="270.172" y="197.964" style="fill:#D7DADD;" width="31.734" height="32.882"/>
			<g>
				<g>
					<polygon style="fill:#D7DADD;" points="305.705,209.814 305.705,213.072 305.705,213.072 339.264,213.072 339.264,213.072 
						339.264,209.814 339.264,209.813 305.705,209.813 					"/>
					<polygon style="fill:#D7DADD;" points="305.705,215.739 305.705,218.997 339.264,218.997 339.264,215.739 339.264,215.738 
						305.705,215.738 					"/>
					<rect x="305.705" y="221.663" style="fill:#D7DADD;" width="33.559" height="3.259"/>
					<rect x="305.705" y="227.588" style="fill:#D7DADD;" width="33.559" height="3.258"/>
					<rect x="305.705" y="197.964" style="fill:#D7DADD;" width="33.559" height="3.259"/>
					<rect x="305.705" y="203.889" style="fill:#D7DADD;" width="33.559" height="3.259"/>
				</g>
				<g>
					<polygon style="fill:#D7DADD;" points="343.52,209.814 343.52,213.072 343.52,213.072 377.079,213.072 377.079,213.072 
						377.079,209.814 377.079,209.813 343.52,209.813 					"/>
					<polygon style="fill:#D7DADD;" points="343.52,215.739 343.52,218.997 377.079,218.997 377.079,215.739 377.079,215.738 
						343.52,215.738 					"/>
					<rect x="343.52" y="221.663" style="fill:#D7DADD;" width="33.559" height="3.259"/>
					<rect x="343.52" y="227.588" style="fill:#D7DADD;" width="33.559" height="3.258"/>
					<rect x="343.52" y="197.964" style="fill:#D7DADD;" width="33.559" height="3.259"/>
					<rect x="343.52" y="203.889" style="fill:#D7DADD;" width="33.559" height="3.259"/>
				</g>
			</g>
		</g>
	</g>
	<g>
		<g>
			<g>
				<g>
					<path style="fill:#F7F7F7;" d="M169.35,316.026c0,2.229-1.823,4.053-4.052,4.053H35.167c-2.229,0-4.052-1.824-4.052-4.053
						v-90.054c0-2.229,1.824-4.053,4.052-4.053h130.13c2.229,0,4.052,1.824,4.052,4.053V316.026z"/>
					<path style="fill:#5F65C5;" d="M165.297,221.92H35.167c-2.229,0-4.052,1.824-4.052,4.053v13.056H169.35v-13.056
						C169.35,223.744,167.526,221.92,165.297,221.92z"/>
				</g>
				<g>
					<path style="fill:#F46042;" d="M43.344,230.617c0,2.133-1.73,3.862-3.862,3.862c-2.133,0-3.862-1.73-3.862-3.862
						s1.729-3.862,3.862-3.862C41.614,226.755,43.344,228.484,43.344,230.617z"/>
					<path style="fill:#F2D144;" d="M56.369,230.617c0,2.133-1.73,3.862-3.863,3.862c-2.133,0-3.862-1.73-3.862-3.862
						s1.729-3.862,3.862-3.862C54.639,226.755,56.369,228.484,56.369,230.617z"/>
					<path style="fill:#4BDBB9;" d="M69.392,230.617c0,2.133-1.729,3.862-3.861,3.862c-2.133,0-3.863-1.73-3.863-3.862
						s1.73-3.862,3.863-3.862C67.663,226.755,69.392,228.484,69.392,230.617z"/>
				</g>
			</g>
			<g>
				<rect x="39.256" y="247.139" style="fill:#E6E7E9;" width="59.635" height="39.861"/>
			</g>
			<g>
				<polygon style="fill:#D7DADD;" points="39.59,303.813 39.59,307.071 39.59,307.071 98.891,307.071 98.891,307.071 
					98.891,303.813 98.891,303.811 39.59,303.811 				"/>
				<polygon style="fill:#D7DADD;" points="39.59,309.737 39.59,312.995 98.891,312.995 98.891,309.737 98.891,309.737 
					39.59,309.737 				"/>
				<rect x="39.59" y="291.963" style="fill:#D7DADD;" width="59.301" height="3.259"/>
				<rect x="39.59" y="297.888" style="fill:#D7DADD;" width="59.301" height="3.259"/>
			</g>
			<g>
				<polygon style="fill:#D7DADD;" points="104.824,258.988 104.824,262.247 104.824,262.247 164.124,262.247 164.124,262.247 
					164.124,258.988 164.124,258.987 104.824,258.987 				"/>
				<polygon style="fill:#D7DADD;" points="104.824,264.913 104.824,268.171 164.124,268.171 164.124,264.913 164.124,264.913 
					104.824,264.913 				"/>
				<rect x="104.824" y="247.139" style="fill:#D7DADD;" width="59.301" height="3.259"/>
				<rect x="104.824" y="253.064" style="fill:#D7DADD;" width="59.301" height="3.259"/>
			</g>
			<g>
				<rect x="104.824" y="271.139" style="fill:#D7DADD;" width="59.301" height="3.259"/>
				<rect x="104.824" y="277.064" style="fill:#D7DADD;" width="59.301" height="3.259"/>
			</g>
			<g>
				<rect x="104.657" y="285.511" style="fill:#E6E7E9;" width="60.031" height="27.484"/>
			</g>
		</g>
	</g>
	<g>
		<g>
			<g>
				<g>
					<path style="fill:#F7F7F7;" d="M477.498,316.026c0,2.229-1.823,4.053-4.053,4.053h-130.13c-2.229,0-4.052-1.824-4.052-4.053
						v-90.054c0-2.229,1.823-4.053,4.052-4.053h130.13c2.229,0,4.053,1.824,4.053,4.053V316.026z"/>
					<path style="fill:#45A3C4;" d="M473.445,221.92h-130.13c-2.229,0-4.052,1.824-4.052,4.053v13.056h138.234v-13.056
						C477.498,223.744,475.675,221.92,473.445,221.92z"/>
				</g>
				<g>
					<path style="fill:#F46042;" d="M351.492,230.617c0,2.133-1.729,3.862-3.861,3.862c-2.133,0-3.862-1.73-3.862-3.862
						s1.729-3.862,3.862-3.862C349.763,226.755,351.492,228.484,351.492,230.617z"/>
					<path style="fill:#F2D144;" d="M364.518,230.617c0,2.133-1.73,3.862-3.863,3.862c-2.133,0-3.861-1.73-3.861-3.862
						s1.728-3.862,3.861-3.862C362.787,226.755,364.518,228.484,364.518,230.617z"/>
					<path style="fill:#4BDBB9;" d="M377.541,230.617c0,2.133-1.729,3.862-3.861,3.862c-2.133,0-3.863-1.73-3.863-3.862
						s1.731-3.862,3.863-3.862C375.811,226.755,377.541,228.484,377.541,230.617z"/>
				</g>
			</g>
			<g>
				<g>
					<rect x="347.403" y="247.139" style="fill:#E6E7E9;" width="121.597" height="21.032"/>
				</g>
				<g>
					<g>
						<g>
							<rect x="347.436" y="302.296" style="fill:#D7DADD;" width="32.494" height="3.259"/>
							<rect x="347.436" y="308.221" style="fill:#D7DADD;" width="32.494" height="3.259"/>
						</g>
						<g>
							<rect x="347.403" y="276.483" style="fill:#E6E7E9;" width="32.527" height="21.032"/>
						</g>
					</g>
					<g>
						<g>
							<rect x="391.972" y="302.296" style="fill:#D7DADD;" width="32.493" height="3.259"/>
							<rect x="391.972" y="308.221" style="fill:#D7DADD;" width="32.493" height="3.259"/>
						</g>
						<g>
							<rect x="391.938" y="276.483" style="fill:#E6E7E9;" width="32.526" height="21.032"/>
						</g>
					</g>
					<g>
						<g>
							<rect x="436.506" y="302.296" style="fill:#D7DADD;" width="32.494" height="3.259"/>
							<rect x="436.506" y="308.221" style="fill:#D7DADD;" width="32.494" height="3.259"/>
						</g>
						<g>
							<rect x="436.473" y="276.483" style="fill:#E6E7E9;" width="32.527" height="21.032"/>
						</g>
					</g>
				</g>
			</g>
		</g>
	</g>
	<path style="fill:#82E0E0;" d="M73.865,184.948c-1.253,0-2.423,0.344-3.432,0.934c-2.204-1.764-4.407-3.527-6.61-5.291
		c0.122-0.509,0.193-1.039,0.193-1.586c0-0.424-0.044-0.837-0.118-1.239c2.201-1.761,4.4-3.522,6.601-5.283
		c0.994,0.566,2.141,0.893,3.366,0.893c3.767,0,6.821-3.054,6.821-6.821s-3.054-6.82-6.821-6.82s-6.82,3.054-6.82,6.82
		c0,0.865,0.167,1.688,0.461,2.45c-1.982,1.586-3.964,3.173-5.947,4.759c-1.182-0.986-2.703-1.58-4.363-1.58
		c-3.767,0-6.82,3.054-6.82,6.82s3.054,6.82,6.82,6.82c1.542,0,2.96-0.518,4.103-1.381c2.06,1.649,4.121,3.298,6.181,4.947
		c-0.276,0.741-0.435,1.54-0.435,2.378c0,3.767,3.054,6.82,6.82,6.82s6.821-3.054,6.821-6.82S77.631,184.948,73.865,184.948z"/>
	<path style="fill:#82E0E0;" d="M456.748,184.603c0-5.358-4.344-9.701-9.701-9.701c-0.398,0-0.789,0.031-1.175,0.078
		c-1.951-5.922-7.52-10.201-14.096-10.201c-7.814,0-14.203,6.04-14.79,13.703c-0.033,0-0.065-0.005-0.098-0.005
		c-4.077,0-7.383,3.305-7.383,7.383c0,3.372,0.703,7.686,6.749,7.686h33.744c3.712,0,6.749-3.037,6.749-6.749v-1.491
		c0-0.121-0.012-0.228-0.018-0.341C456.734,184.844,456.748,184.725,456.748,184.603z"/>
	<g>
		<path style="fill:#82E0E0;" d="M425.481,127.184l-18.492-18.492c3.725-4.741,5.954-10.71,5.954-17.193
			c0-15.378-12.512-27.89-27.89-27.89s-27.89,12.511-27.89,27.89s12.512,27.889,27.89,27.889c5.773,0,11.144-1.764,15.599-4.781
			l18.703,18.703c1.691,1.691,4.435,1.691,6.126-0.001C427.173,131.619,427.173,128.876,425.481,127.184z M362.837,91.499
			c0-12.251,9.967-22.217,22.217-22.217s22.217,9.966,22.217,22.217c0,12.25-9.967,22.217-22.217,22.217
			S362.837,103.749,362.837,91.499z"/>
		<g>
			<path style="fill:#4BDBB9;" d="M396.966,101.294c0,0.669-0.542,1.211-1.212,1.211h-23.196c-0.67,0-1.212-0.542-1.212-1.211l0,0
				c0-0.669,0.542-1.212,1.212-1.212h23.196C396.424,100.082,396.966,100.625,396.966,101.294L396.966,101.294z"/>
			<g>
				<rect x="375.134" y="89.318" style="fill:#4BDBB9;" width="4.043" height="9.083"/>
				<rect x="382.134" y="84.87" style="fill:#4BDBB9;" width="4.043" height="13.531"/>
				<rect x="389.134" y="79.865" style="fill:#4BDBB9;" width="4.043" height="18.536"/>
			</g>
		</g>
	</g>
	<g>
		<path style="fill:#4BDBB9;" d="M124.171,87.298c0-14.062-11.398-25.46-25.46-25.46c-14.062,0-25.46,11.399-25.46,25.46
			c0,5.71,1.902,10.963,5.077,15.21l-0.028,0.008l20.412,26.865l20.412-26.865l-0.029-0.008
			C122.269,98.262,124.171,93.009,124.171,87.298z"/>
		<path style="fill:#82E0E0;" d="M118.195,87.732c0,10.762-8.723,19.484-19.484,19.484c-10.761,0-19.484-8.722-19.484-19.484
			c0-10.761,8.724-19.484,19.484-19.484C109.472,68.248,118.195,76.971,118.195,87.732z"/>
	</g>
	<text transform="matrix(1 0 0 1 137.1392 377.7129)" style="fill:#F7F7F7; font-family:'NexaBold'; font-size:31.8861px;">LINK BUILDING</text>
	<rect x="80.997" y="389" style="fill:none;" width="338.006" height="54"/>
	<text transform="matrix(1 0 0 1 86.041 398.1563)"><tspan x="0" y="0" style="fill:#374C4B; font-family:'Dosis-Regular'; font-size:12px;">Lorem ipsum dolor sit amet, consectetur adipiscing elit. Suspendisse non </tspan><tspan x="0.708" y="17" style="fill:#374C4B; font-family:'Dosis-Regular'; font-size:12px;">nibh odio. Pellentesque condimentum diam eget libero pretium efficitur. </tspan><tspan x="17.304" y="34" style="fill:#374C4B; font-family:'Dosis-Regular'; font-size:12px;">Vestibulum sem urna, commodo ut sodales et, sodales at mauris.</tspan></text>
	<g>
		<g>
			<path style="fill:#F46042;" d="M241.508,195.931c-4.061,0-8.122,0-12.183,0c-6.988,0-8.071-10.919-1.57-12.707
				c1.285-0.353,2.994-0.089,4.294-0.089c2.731,0,5.462,0,8.193,0c4.38,0,11.439-1.15,11.78,5.165c0.162,3.011,4.858,3.027,4.695,0
				c-0.252-4.681-3.07-8.352-7.625-9.604c-2.186-0.601-4.888-0.257-7.116-0.257c-3.468,0-6.936,0-10.403,0
				c-2.778,0-5.241,0.017-7.807,1.347c-7.477,3.875-6.32,17.119,1.249,20.088c2.704,1.061,5.73,0.753,8.58,0.753
				c2.638,0,5.276,0,7.914,0C244.537,200.626,244.537,195.931,241.508,195.931L241.508,195.931z"/>
		</g>
		<g>
			<path style="fill:#F46042;" d="M258.492,183.135c4.061,0,8.122,0,12.184,0c6.987,0,8.07,10.919,1.57,12.707
				c-1.284,0.353-2.994,0.089-4.294,0.089c-2.732,0-5.462,0-8.193,0c-4.381,0-11.44,1.149-11.78-5.165
				c-0.162-3.011-4.858-3.027-4.695,0c0.252,4.681,3.07,8.351,7.624,9.604c2.186,0.601,4.889,0.257,7.117,0.257
				c3.467,0,6.935,0,10.402,0c2.778,0,5.241-0.017,7.808-1.346c7.478-3.875,6.32-17.119-1.25-20.089
				c-2.703-1.061-5.729-0.752-8.58-0.752c-2.638,0-5.275,0-7.913,0C255.463,178.439,255.463,183.135,258.492,183.135
				L258.492,183.135z"/>
		</g>
	</g>
	<g>
		<g>
			<path style="fill:#4BDBB9;" d="M108.785,237.284c-2.871,2.873-5.743,5.744-8.614,8.615c-4.941,4.941-13.429-2.014-10.096-7.875
				c0.658-1.157,2.054-2.181,2.973-3.1c1.932-1.931,3.862-3.862,5.794-5.793c3.097-3.098,7.274-8.902,11.981-4.678
				c2.243,2.015,5.576-1.294,3.32-3.319c-3.488-3.132-8.076-3.734-12.183-1.399c-1.97,1.121-3.639,3.275-5.214,4.851
				c-2.452,2.452-4.903,4.904-7.355,7.356c-1.965,1.964-3.695,3.717-4.569,6.472c-2.547,8.028,7.637,16.575,15.089,13.321
				c2.662-1.16,4.583-3.518,6.599-5.533c1.865-1.865,3.731-3.732,5.596-5.596C114.248,238.462,110.927,235.142,108.785,237.284
				L108.785,237.284z"/>
		</g>
		<g>
			<path style="fill:#4BDBB9;" d="M111.747,216.226c2.871-2.872,5.743-5.743,8.614-8.615c4.941-4.94,13.429,2.016,10.096,7.875
				c-0.658,1.157-2.054,2.18-2.974,3.1c-1.932,1.932-3.861,3.862-5.793,5.793c-3.098,3.098-7.277,8.902-11.982,4.678
				c-2.243-2.016-5.575,1.294-3.32,3.32c3.489,3.132,8.077,3.734,12.183,1.399c1.971-1.121,3.64-3.274,5.215-4.851
				c2.451-2.451,4.903-4.903,7.355-7.355c1.965-1.965,3.694-3.719,4.569-6.474c2.547-8.027-7.637-16.574-15.089-13.321
				c-2.662,1.162-4.583,3.519-6.6,5.536c-1.864,1.865-3.729,3.73-5.595,5.595C106.284,215.048,109.604,218.369,111.747,216.226
				L111.747,216.226z"/>
		</g>
	</g>
	<g>
		<g>
			<path style="fill:#074E7C;" d="M391.215,237.284c2.871,2.873,5.743,5.744,8.614,8.615c4.941,4.941,13.429-2.014,10.096-7.875
				c-0.658-1.157-2.054-2.181-2.973-3.1c-1.932-1.931-3.862-3.862-5.794-5.793c-3.097-3.098-7.274-8.902-11.981-4.678
				c-2.243,2.015-5.576-1.294-3.32-3.319c3.488-3.132,8.076-3.734,12.183-1.399c1.97,1.121,3.639,3.275,5.214,4.851
				c2.452,2.452,4.903,4.904,7.355,7.356c1.965,1.964,3.695,3.717,4.569,6.472c2.548,8.028-7.637,16.575-15.089,13.321
				c-2.662-1.16-4.583-3.518-6.599-5.533c-1.865-1.865-3.731-3.732-5.596-5.596C385.752,238.462,389.073,235.142,391.215,237.284
				L391.215,237.284z"/>
		</g>
		<g>
			<path style="fill:#074E7C;" d="M388.253,216.226c-2.871-2.872-5.743-5.743-8.614-8.615c-4.941-4.94-13.429,2.016-10.096,7.875
				c0.658,1.157,2.054,2.18,2.974,3.1c1.932,1.932,3.861,3.862,5.793,5.793c3.098,3.098,7.277,8.902,11.982,4.678
				c2.243-2.016,5.575,1.294,3.32,3.32c-3.489,3.132-8.077,3.734-12.183,1.399c-1.971-1.121-3.64-3.274-5.215-4.851
				c-2.451-2.451-4.903-4.903-7.355-7.355c-1.965-1.965-3.694-3.719-4.569-6.474c-2.547-8.027,7.637-16.574,15.089-13.321
				c2.662,1.162,4.583,3.519,6.6,5.536c1.864,1.865,3.73,3.73,5.595,5.595C393.716,215.048,390.395,218.369,388.253,216.226
				L388.253,216.226z"/>
		</g>
	</g>
	<g>
		<g>
			<path style="fill:#82E0E0;" d="M248.763,90.658c-2.398,2.398-4.796,4.796-7.194,7.195c-4.127,4.127-11.215-1.683-8.432-6.577
				c0.55-0.967,1.715-1.821,2.483-2.588c1.613-1.612,3.226-3.225,4.838-4.838c2.586-2.586,6.076-7.434,10.006-3.906
				c1.874,1.683,4.657-1.082,2.772-2.773c-2.913-2.616-6.744-3.119-10.174-1.168c-1.645,0.936-3.039,2.735-4.354,4.051
				c-2.048,2.048-4.096,4.095-6.144,6.143c-1.64,1.641-3.085,3.105-3.814,5.406c-2.128,6.704,6.376,13.841,12.6,11.125
				c2.223-0.97,3.828-2.938,5.511-4.622c1.558-1.558,3.116-3.116,4.673-4.673C253.325,91.643,250.551,88.87,248.763,90.658
				L248.763,90.658z"/>
		</g>
		<g>
			<path style="fill:#4BDBB9;" d="M251.236,73.072c2.397-2.398,4.796-4.796,7.194-7.194c4.126-4.126,11.214,1.683,8.431,6.576
				c-0.55,0.967-1.715,1.821-2.483,2.588c-1.613,1.613-3.225,3.226-4.838,4.838c-2.587,2.587-6.077,7.435-10.007,3.906
				c-1.873-1.683-4.656,1.081-2.772,2.773c2.914,2.615,6.745,3.119,10.174,1.168c1.646-0.936,3.04-2.735,4.355-4.051
				c2.047-2.047,4.095-4.095,6.143-6.142c1.641-1.641,3.085-3.106,3.815-5.406c2.128-6.704-6.377-13.841-12.6-11.125
				c-2.224,0.97-3.827,2.939-5.512,4.623c-1.558,1.558-3.115,3.115-4.673,4.673C246.674,72.088,249.447,74.861,251.236,73.072
				L251.236,73.072z"/>
		</g>
	</g>
</g>
</svg>
