<?xml version="1.0" encoding="utf-8"?>
<!-- Generator: Adobe Illustrator 27.5.0, SVG Export Plug-In . SVG Version: 6.00 Build 0)  -->
<svg version="1.1" xmlns="http://www.w3.org/2000/svg" xmlns:xlink="http://www.w3.org/1999/xlink" x="0px" y="0px"
	 viewBox="0 0 750 500" style="enable-background:new 0 0 750 500;" xml:space="preserve">
<g id="BACKGROUND">
	<rect style="fill:#F5B2A6;" width="750" height="500"/>
</g>
<g id="OBJECTS">
	<g>
		<g>
			<g>
				<path style="fill:#4FB0C3;" d="M626.098,440.814H160.41c-2.701,0-4.891-2.19-4.891-4.891V131.919
					c0-2.701,2.19-4.891,4.891-4.891h465.688c2.701,0,4.891,2.19,4.891,4.891v304.004
					C630.989,438.624,628.8,440.814,626.098,440.814z"/>
				<path style="fill:#222733;" d="M635.844,440.814H170.156c-2.701,0-4.891-2.19-4.891-4.891V131.919
					c0-2.701,2.19-4.891,4.891-4.891h465.688c2.701,0,4.891,2.19,4.891,4.891v304.004
					C640.735,438.624,638.545,440.814,635.844,440.814z"/>
				<path style="fill:#FFFFFF;" d="M172.798,412.61V137.272c0-1.497,1.214-2.711,2.711-2.711h454.98
					c1.497,0,2.711,1.214,2.711,2.711V412.61c0,1.497-1.214,2.711-2.711,2.711h-454.98
					C174.012,415.321,172.798,414.108,172.798,412.61z"/>
			</g>
			<rect x="184.499" y="162.712" style="fill:#E96C58;" width="437.002" height="106.942"/>
			<rect x="206.811" y="143.67" style="fill:#4FB0C3;" width="103.095" height="143.68"/>
			<g>
				<polygon style="fill:#FFD2CC;" points="576.313,252.277 494.652,252.277 534.128,194.781 				"/>
				<circle style="fill:#FFFFFF;" cx="561.011" cy="207.28" r="7.083"/>
				<polygon style="fill:#F5B2A6;" points="611.787,252.277 550.837,252.277 580.302,209.363 				"/>
			</g>
			<g>
				<circle style="fill:none;stroke:#FFFFFF;stroke-width:1.1372;stroke-miterlimit:10;" cx="258.358" cy="215.51" r="35.68"/>
				
					<ellipse style="fill:none;stroke:#FFFFFF;stroke-width:1.1372;stroke-miterlimit:10;" cx="258.358" cy="215.51" rx="17.695" ry="35.68"/>
				
					<line style="fill:none;stroke:#FFFFFF;stroke-width:1.1372;stroke-miterlimit:10;" x1="222.679" y1="215.51" x2="294.038" y2="215.51"/>
				
					<line style="fill:none;stroke:#FFFFFF;stroke-width:1.1372;stroke-miterlimit:10;" x1="258.358" y1="179.83" x2="258.358" y2="251.189"/>
				<path style="fill:none;stroke:#FFFFFF;stroke-width:1.1372;stroke-miterlimit:10;" d="M229.274,194.845
					c19.389,3.959,38.779,3.959,58.172,0"/>
				<path style="fill:none;stroke:#FFFFFF;stroke-width:1.1372;stroke-miterlimit:10;" d="M229.274,236.174
					c19.389-3.959,38.779-3.959,58.172,0"/>
			</g>
			<g>
				<g>
					<text transform="matrix(1 0 0 1 329.8267 199.9594)"><tspan x="0" y="0" style="fill:#FFFFFF; font-family:'MontserratAlternates-Black'; font-size:23.0798px;">Responsive</tspan><tspan x="0" y="25.875" style="fill:#FFFFFF; font-family:'MontserratAlternates-Black'; font-size:23.0798px;">Design</tspan></text>
				</g>
				<g>
					<path style="fill:#FFFFFF;" d="M426.459,241.892H331.27c-0.797,0-1.442-0.646-1.442-1.442l0,0c0-0.796,0.646-1.442,1.442-1.442
						h95.189c0.797,0,1.442,0.646,1.442,1.442l0,0C427.901,241.246,427.255,241.892,426.459,241.892z"/>
					<path style="fill:#FFFFFF;" d="M474.73,251.221H331.27c-0.797,0-1.442-0.646-1.442-1.442l0,0c0-0.797,0.646-1.442,1.442-1.442
						h143.46c0.797,0,1.442,0.646,1.442,1.442l0,0C476.172,250.576,475.526,251.221,474.73,251.221z"/>
				</g>
			</g>
		</g>
		<g>
			<rect x="184.499" y="300.353" style="fill:#F5B2A6;" width="134.885" height="86.169"/>
			<rect x="335.557" y="300.353" style="fill:#4FB0C3;" width="134.885" height="86.169"/>
			<rect x="486.615" y="300.353" style="fill:#222733;" width="134.885" height="86.169"/>
		</g>
		<g>
			<g>
				
					<path style="fill:none;stroke:#222733;stroke-width:2.2745;stroke-linecap:round;stroke-linejoin:round;stroke-miterlimit:10;" d="
					M212.26,312.086l-15.159,4.263l1.984,20.048c0,0,3.939,7.47,13.174,8.964c9.236-1.494,13.174-8.964,13.174-8.964l1.984-20.048
					L212.26,312.086z"/>
				
					<polyline style="fill:none;stroke:#222733;stroke-width:2.2745;stroke-linecap:round;stroke-linejoin:round;stroke-miterlimit:10;" points="
					205.785,326.928 210.048,331.192 218.736,322.504 				"/>
			</g>
			
				<line style="fill:none;stroke:#FFFFFF;stroke-width:2.2745;stroke-linecap:round;stroke-linejoin:round;stroke-miterlimit:10;" x1="194.303" y1="355.171" x2="307.016" y2="355.171"/>
			
				<line style="fill:none;stroke:#FFFFFF;stroke-width:2.2745;stroke-linecap:round;stroke-linejoin:round;stroke-miterlimit:10;" x1="238.227" y1="340.168" x2="307.016" y2="340.168"/>
			
				<line style="fill:none;stroke:#FFFFFF;stroke-width:2.2745;stroke-linecap:round;stroke-linejoin:round;stroke-miterlimit:10;" x1="238.227" y1="325.165" x2="307.016" y2="325.165"/>
			
				<line style="fill:none;stroke:#FFFFFF;stroke-width:2.2745;stroke-linecap:round;stroke-linejoin:round;stroke-miterlimit:10;" x1="194.303" y1="370.173" x2="307.016" y2="370.173"/>
		</g>
		<g>
			
				<line style="fill:none;stroke:#FFFFFF;stroke-width:2.2745;stroke-linecap:round;stroke-linejoin:round;stroke-miterlimit:10;" x1="346.643" y1="355.171" x2="459.356" y2="355.171"/>
			
				<line style="fill:none;stroke:#FFFFFF;stroke-width:2.2745;stroke-linecap:round;stroke-linejoin:round;stroke-miterlimit:10;" x1="390.567" y1="340.168" x2="459.356" y2="340.168"/>
			
				<line style="fill:none;stroke:#FFFFFF;stroke-width:2.2745;stroke-linecap:round;stroke-linejoin:round;stroke-miterlimit:10;" x1="390.567" y1="325.165" x2="459.356" y2="325.165"/>
			
				<line style="fill:none;stroke:#FFFFFF;stroke-width:2.2745;stroke-linecap:round;stroke-linejoin:round;stroke-miterlimit:10;" x1="346.643" y1="370.173" x2="459.356" y2="370.173"/>
			<g>
				<circle style="fill:none;stroke:#E96C58;stroke-width:2.2745;stroke-miterlimit:10;" cx="364.008" cy="330.748" r="13.464"/>
				
					<line style="fill:none;stroke:#E96C58;stroke-width:2.2745;stroke-linecap:round;stroke-linejoin:round;stroke-miterlimit:10;" x1="373.245" y1="340.537" x2="376.993" y2="344.284"/>
			</g>
		</g>
		<g>
			
				<line style="fill:none;stroke:#FFFFFF;stroke-width:2.2745;stroke-linecap:round;stroke-linejoin:round;stroke-miterlimit:10;" x1="498.984" y1="355.171" x2="611.696" y2="355.171"/>
			
				<line style="fill:none;stroke:#FFFFFF;stroke-width:2.2745;stroke-linecap:round;stroke-linejoin:round;stroke-miterlimit:10;" x1="542.907" y1="340.168" x2="611.696" y2="340.168"/>
			
				<line style="fill:none;stroke:#FFFFFF;stroke-width:2.2745;stroke-linecap:round;stroke-linejoin:round;stroke-miterlimit:10;" x1="542.907" y1="325.165" x2="611.696" y2="325.165"/>
			
				<line style="fill:none;stroke:#FFFFFF;stroke-width:2.2745;stroke-linecap:round;stroke-linejoin:round;stroke-miterlimit:10;" x1="498.984" y1="370.173" x2="611.696" y2="370.173"/>
			<g>
				<g>
					
						<rect x="503.146" y="324.332" style="fill:none;stroke:#4FB0C3;stroke-width:2.2745;stroke-linecap:round;stroke-linejoin:round;stroke-miterlimit:10;" width="27.697" height="17.054"/>
					
						<path style="fill:none;stroke:#4FB0C3;stroke-width:2.2745;stroke-linecap:round;stroke-linejoin:round;stroke-miterlimit:10;" d="
						M525.329,324.332h-16.67v-3.078c0-4.603,3.732-8.335,8.335-8.335l0,0c4.603,0,8.335,3.732,8.335,8.335V324.332z"/>
				</g>
			</g>
		</g>
		<g>
			<path style="fill:#222733;" d="M358.929,415.321v20.515c0,2.749,2.229,4.978,4.978,4.978h342.016
				c2.749,0,4.978-2.229,4.978-4.978v-20.515H358.929z"/>
			<path style="fill:#4FB0C3;" d="M155.519,415.321v20.515c0,2.749,2.229,4.978,4.978,4.978h203.51c2.749,0,4.978-2.229,4.978-4.978
				v-20.515H155.519z"/>
			<g>
				<rect x="172.798" y="424.125" style="fill:#222733;" width="26.543" height="7.886"/>
				<rect x="209.728" y="424.125" style="fill:#222733;" width="26.543" height="7.886"/>
				<rect x="246.658" y="424.125" style="fill:#222733;" width="26.543" height="7.886"/>
			</g>
			<g>
				<g>
					<path style="fill:#E96C58;" d="M199.367,411.205c-0.32-1.208-1.414-2.049-2.664-2.049h-21.726c-1.25,0-2.343,0.841-2.664,2.049
						l-1.091,4.116h29.236L199.367,411.205z"/>
					<path style="fill:#E96C58;" d="M237.873,411.205c-0.32-1.208-1.414-2.049-2.664-2.049h-21.725c-1.25,0-2.344,0.841-2.664,2.049
						l-1.091,4.116h29.236L237.873,411.205z"/>
					<path style="fill:#E96C58;" d="M276.378,411.205c-0.32-1.208-1.414-2.049-2.664-2.049h-21.726c-1.25,0-2.344,0.841-2.664,2.049
						l-1.091,4.116h29.236L276.378,411.205z"/>
					<path style="fill:#E96C58;" d="M314.884,411.205c-0.32-1.208-1.414-2.049-2.664-2.049h-21.725c-1.25,0-2.344,0.841-2.664,2.049
						l-1.091,4.116h29.236L314.884,411.205z"/>
					<path style="fill:#E96C58;" d="M353.39,411.205c-0.32-1.208-1.414-2.049-2.664-2.049h-21.725c-1.25,0-2.344,0.841-2.664,2.049
						l-1.091,4.116h29.236L353.39,411.205z"/>
					<path style="fill:#E96C58;" d="M545.92,411.205c-0.32-1.208-1.414-2.049-2.664-2.049H521.53c-1.25,0-2.344,0.841-2.664,2.049
						l-1.091,4.116h29.236L545.92,411.205z"/>
					<path style="fill:#E96C58;" d="M584.425,411.205c-0.32-1.208-1.414-2.049-2.664-2.049h-21.726c-1.25,0-2.344,0.841-2.664,2.049
						l-1.091,4.116h29.236L584.425,411.205z"/>
					<path style="fill:#E96C58;" d="M622.931,411.205c-0.32-1.208-1.414-2.049-2.664-2.049h-21.726c-1.25,0-2.344,0.841-2.664,2.049
						l-1.091,4.116h29.236L622.931,411.205z"/>
					<path style="fill:#E96C58;" d="M507.414,411.205c-0.32-1.208-1.414-2.049-2.664-2.049H367.507c-1.25,0-2.344,0.841-2.664,2.049
						l-1.091,4.116h144.754L507.414,411.205z"/>
				</g>
			</g>
		</g>
	</g>
	<g>
		<g>
			<path style="fill:#222733;" d="M702.347,221.077H595.006c-4.632,0-8.386,3.755-8.386,8.386v203.658
				c0,4.632,3.755,8.386,8.386,8.386h107.341c4.632,0,8.386-3.755,8.386-8.386V229.463
				C710.733,224.832,706.979,221.077,702.347,221.077z"/>
			<path style="fill:#4FB0C3;" d="M710.423,221.077H603.082c-4.632,0-8.386,3.755-8.386,8.386v203.658
				c0,4.632,3.755,8.386,8.386,8.386h107.341c4.632,0,8.386-3.755,8.386-8.386V229.463
				C718.809,224.832,715.055,221.077,710.423,221.077z"/>
			<path style="fill:#FFFFFF;" d="M708.448,228.985H605.056c-1.355,0-2.453,1.098-2.453,2.453v190.546
				c0,1.355,1.098,2.454,2.453,2.454h103.392c1.355,0,2.453-1.099,2.453-2.454V231.439
				C710.901,230.089,709.797,228.985,708.448,228.985z"/>
		</g>
		<g>
			<g>
				<g>
					<rect x="609.502" y="240.617" style="fill:#E96C58;" width="94.501" height="62.426"/>
					<g>
						<polygon style="fill:#FFD2CC;" points="659.519,295.977 616.682,295.977 637.39,265.817 						"/>
						<circle style="fill:#FFFFFF;" cx="651.492" cy="272.373" r="3.715"/>
						<polygon style="fill:#F5B2A6;" points="678.128,295.977 646.155,295.977 661.611,273.466 						"/>
					</g>
					<g>
						<g>
							<text transform="matrix(1 0 0 1 658.728 253.5248)"><tspan x="0" y="0" style="fill:#FFFFFF; font-family:'MontserratAlternates-Black'; font-size:8.111px;">Responsive</tspan><tspan x="14.673" y="9.094" style="fill:#FFFFFF; font-family:'MontserratAlternates-Black'; font-size:8.111px;">Design</tspan></text>
						</g>
					</g>
					<rect x="615.559" y="235.359" style="fill:#4FB0C3;" width="24.565" height="24.565"/>
				</g>
				<g>
					
						<ellipse transform="matrix(0.1597 -0.9872 0.9872 0.1597 283.0873 827.8621)" style="fill:none;stroke:#FFFFFF;stroke-width:0.2843;stroke-linejoin:round;stroke-miterlimit:10;" cx="627.841" cy="247.642" rx="8.85" ry="8.85"/>
					<path style="fill:none;stroke:#FFFFFF;stroke-width:0.2843;stroke-linejoin:round;stroke-miterlimit:10;" d="M632.23,247.642
						c0,4.888-1.965,8.85-4.389,8.85c-2.424,0-4.389-3.962-4.389-8.85c0-4.888,1.965-8.85,4.389-8.85
						C630.265,238.792,632.23,242.754,632.23,247.642z"/>
					
						<line style="fill:none;stroke:#FFFFFF;stroke-width:0.2843;stroke-linejoin:round;stroke-miterlimit:10;" x1="618.991" y1="247.642" x2="636.691" y2="247.642"/>
					
						<line style="fill:none;stroke:#FFFFFF;stroke-width:0.2843;stroke-linejoin:round;stroke-miterlimit:10;" x1="627.841" y1="238.792" x2="627.841" y2="256.492"/>
					<path style="fill:none;stroke:#FFFFFF;stroke-width:0.2843;stroke-linejoin:round;stroke-miterlimit:10;" d="M620.627,242.516
						c4.809,0.982,9.619,0.982,14.429,0"/>
					<path style="fill:none;stroke:#FFFFFF;stroke-width:0.2843;stroke-linejoin:round;stroke-miterlimit:10;" d="M620.627,252.767
						c4.809-0.982,9.619-0.982,14.429,0"/>
				</g>
			</g>
			<g>
				<rect x="609.502" y="307.135" style="fill:#F5B2A6;" width="33.631" height="33.631"/>
				<rect x="648.677" y="307.135" style="fill:#F5B2A6;" width="55.327" height="33.631"/>
				<g>
					<g>
						
							<path style="fill:none;stroke:#222733;stroke-width:1.1372;stroke-linecap:round;stroke-linejoin:round;stroke-miterlimit:10;" d="
							M626.317,312.452l-10.477,2.947l1.371,13.856c0,0,2.722,5.163,9.105,6.195c6.383-1.033,9.105-6.195,9.105-6.195l1.371-13.856
							L626.317,312.452z"/>
						
							<polyline style="fill:none;stroke:#222733;stroke-width:1.1372;stroke-linecap:round;stroke-linejoin:round;stroke-miterlimit:10;" points="
							621.842,322.71 624.789,325.657 630.793,319.653 						"/>
					</g>
					<g>
						
							<line style="fill:none;stroke:#FFFFFF;stroke-width:1.1372;stroke-linecap:round;stroke-linejoin:round;stroke-miterlimit:10;" x1="654.48" y1="327.464" x2="698.586" y2="327.464"/>
						
							<line style="fill:none;stroke:#FFFFFF;stroke-width:1.1372;stroke-linecap:round;stroke-linejoin:round;stroke-miterlimit:10;" x1="654.48" y1="320.438" x2="698.586" y2="320.438"/>
						
							<line style="fill:none;stroke:#FFFFFF;stroke-width:1.1372;stroke-linecap:round;stroke-linejoin:round;stroke-miterlimit:10;" x1="654.48" y1="313.411" x2="675.064" y2="313.411"/>
						
							<line style="fill:none;stroke:#FFFFFF;stroke-width:1.1372;stroke-linecap:round;stroke-linejoin:round;stroke-miterlimit:10;" x1="654.48" y1="334.491" x2="698.586" y2="334.491"/>
					</g>
				</g>
			</g>
			<g>
				<rect x="609.502" y="345.17" style="fill:#4FB0C3;" width="33.631" height="33.631"/>
				<rect x="648.677" y="345.17" style="fill:#4FB0C3;" width="55.327" height="33.631"/>
				<g>
					<g>
						<path style="fill:none;stroke:#E96C58;stroke-width:1.1372;stroke-miterlimit:10;" d="M632.733,355.547
							c3.702,3.702,3.702,9.704,0,13.406c-3.702,3.702-9.704,3.702-13.406,0c-3.702-3.702-3.702-9.704,0-13.406
							S629.031,351.845,632.733,355.547z"/>
						
							<line style="fill:none;stroke:#E96C58;stroke-width:1.1372;stroke-linecap:round;stroke-linejoin:round;stroke-miterlimit:10;" x1="632.533" y1="369.141" x2="635.172" y2="371.78"/>
					</g>
					<g>
						
							<line style="fill:none;stroke:#FFFFFF;stroke-width:1.1372;stroke-linecap:round;stroke-linejoin:round;stroke-miterlimit:10;" x1="654.48" y1="365.499" x2="698.586" y2="365.499"/>
						
							<line style="fill:none;stroke:#FFFFFF;stroke-width:1.1372;stroke-linecap:round;stroke-linejoin:round;stroke-miterlimit:10;" x1="654.48" y1="358.472" x2="698.586" y2="358.472"/>
						
							<line style="fill:none;stroke:#FFFFFF;stroke-width:1.1372;stroke-linecap:round;stroke-linejoin:round;stroke-miterlimit:10;" x1="654.48" y1="351.445" x2="675.064" y2="351.445"/>
						
							<line style="fill:none;stroke:#FFFFFF;stroke-width:1.1372;stroke-linecap:round;stroke-linejoin:round;stroke-miterlimit:10;" x1="654.48" y1="372.525" x2="698.586" y2="372.525"/>
					</g>
				</g>
			</g>
			<g>
				<rect x="609.502" y="383.204" style="fill:#222733;" width="33.631" height="33.631"/>
				<rect x="648.677" y="383.204" style="fill:#222733;" width="55.327" height="33.631"/>
				<g>
					<g>
						
							<line style="fill:none;stroke:#FFFFFF;stroke-width:1.1372;stroke-linecap:round;stroke-linejoin:round;stroke-miterlimit:10;" x1="654.48" y1="403.533" x2="698.586" y2="403.533"/>
						
							<line style="fill:none;stroke:#FFFFFF;stroke-width:1.1372;stroke-linecap:round;stroke-linejoin:round;stroke-miterlimit:10;" x1="654.48" y1="396.506" x2="698.586" y2="396.506"/>
						
							<line style="fill:none;stroke:#FFFFFF;stroke-width:1.1372;stroke-linecap:round;stroke-linejoin:round;stroke-miterlimit:10;" x1="654.48" y1="389.48" x2="675.064" y2="389.48"/>
						
							<line style="fill:none;stroke:#FFFFFF;stroke-width:1.1372;stroke-linecap:round;stroke-linejoin:round;stroke-miterlimit:10;" x1="654.48" y1="410.559" x2="698.586" y2="410.559"/>
					</g>
					<g>
						<g>
							
								<rect x="616.644" y="397.565" style="fill:none;stroke:#4FB0C3;stroke-width:1.1372;stroke-linecap:round;stroke-linejoin:round;stroke-miterlimit:10;" width="19.346" height="11.912"/>
							
								<path style="fill:none;stroke:#4FB0C3;stroke-width:1.1372;stroke-linecap:round;stroke-linejoin:round;stroke-miterlimit:10;" d="
								M632.139,397.565h-11.643v-2.15c0-3.215,2.606-5.822,5.822-5.822h0c3.215,0,5.822,2.606,5.822,5.822V397.565z"/>
						</g>
					</g>
				</g>
			</g>
		</g>
	</g>
	<g>
		<g>
			<path style="fill:#4FB0C3;" d="M209.989,207.28H40.066c-3.881,0-7.027,3.146-7.027,7.026v220.174
				c0,3.881,3.146,7.027,7.027,7.027h169.923c3.881,0,7.026-3.146,7.026-7.027V214.307
				C217.016,210.426,213.87,207.28,209.989,207.28z"/>
			<path style="fill:#222733;" d="M219.377,207.28H49.454c-3.881,0-7.027,3.146-7.027,7.026v220.174
				c0,3.881,3.146,7.027,7.027,7.027h169.923c3.881,0,7.027-3.146,7.027-7.027V214.307
				C226.404,210.426,223.258,207.28,219.377,207.28z"/>
			<path style="fill:#FFFFFF;" d="M217.213,214.814H51.618c-0.915,0-1.657,0.742-1.657,1.657v215.847
				c0,0.915,0.742,1.657,1.657,1.657h165.595c0.915,0,1.657-0.742,1.657-1.657V216.471
				C218.87,215.555,218.128,214.814,217.213,214.814z"/>
		</g>
		<g>
			<g>
				<rect x="58.637" y="222.961" style="fill:#E96C58;" width="151.556" height="63.599"/>
				<rect x="155.953" y="222.961" style="fill:#4FB0C3;" width="45.008" height="48.574"/>
				<g>
					
						<circle style="fill:none;stroke:#FFFFFF;stroke-width:0.5686;stroke-linecap:round;stroke-linejoin:round;stroke-miterlimit:10;" cx="178.457" cy="247.248" r="15.214"/>
					
						<ellipse style="fill:none;stroke:#FFFFFF;stroke-width:0.5686;stroke-linecap:round;stroke-linejoin:round;stroke-miterlimit:10;" cx="178.457" cy="247.248" rx="7.546" ry="15.215"/>
					
						<line style="fill:none;stroke:#FFFFFF;stroke-width:0.5686;stroke-linecap:round;stroke-linejoin:round;stroke-miterlimit:10;" x1="163.242" y1="247.248" x2="193.671" y2="247.248"/>
					
						<line style="fill:none;stroke:#FFFFFF;stroke-width:0.5686;stroke-linecap:round;stroke-linejoin:round;stroke-miterlimit:10;" x1="178.457" y1="232.033" x2="178.457" y2="262.462"/>
					
						<path style="fill:none;stroke:#FFFFFF;stroke-width:0.5686;stroke-linecap:round;stroke-linejoin:round;stroke-miterlimit:10;" d="
						M166.055,238.436c8.268,1.688,16.536,1.688,24.806,0"/>
					
						<path style="fill:none;stroke:#FFFFFF;stroke-width:0.5686;stroke-linecap:round;stroke-linejoin:round;stroke-miterlimit:10;" d="
						M166.055,256.06c8.268-1.688,16.536-1.688,24.806,0"/>
				</g>
				<g>
					<g>
						<text transform="matrix(1 0 0 1 71.0288 245.4926)"><tspan x="0" y="0" style="fill:#FFFFFF; font-family:'MontserratAlternates-Black'; font-size:11.7248px;">Responsive</tspan><tspan x="0" y="13.145" style="fill:#FFFFFF; font-family:'MontserratAlternates-Black'; font-size:11.7248px;">Design</tspan></text>
					</g>
					<g>
						<path style="fill:#FFFFFF;" d="M120.119,266.795H71.762c-0.405,0-0.733-0.328-0.733-0.733l0,0
							c0-0.405,0.328-0.733,0.733-0.733h48.357c0.405,0,0.733,0.328,0.733,0.733l0,0
							C120.852,266.467,120.524,266.795,120.119,266.795z"/>
						<path style="fill:#FFFFFF;" d="M144.641,271.535H71.762c-0.405,0-0.733-0.328-0.733-0.733l0,0
							c0-0.405,0.328-0.733,0.733-0.733h72.879c0.405,0,0.733,0.328,0.733,0.733l0,0
							C145.374,271.207,145.046,271.535,144.641,271.535z"/>
					</g>
				</g>
			</g>
			<rect x="58.637" y="295.737" style="fill:#F5B2A6;" width="151.556" height="32.698"/>
			<rect x="58.637" y="337.611" style="fill:#4FB0C3;" width="151.556" height="32.698"/>
			<rect x="58.637" y="379.486" style="fill:#222733;" width="151.556" height="32.698"/>
			<g>
				<g>
					
						<path style="fill:none;stroke:#222733;stroke-width:0.8529;stroke-linecap:round;stroke-linejoin:round;stroke-miterlimit:10;" d="
						M77.245,302.068l-9.127,2.567l1.195,12.071c0,0,2.371,4.498,7.932,5.397c5.561-0.9,7.932-5.397,7.932-5.397l1.195-12.071
						L77.245,302.068z"/>
					
						<polyline style="fill:none;stroke:#222733;stroke-width:0.8529;stroke-linecap:round;stroke-linejoin:round;stroke-miterlimit:10;" points="
						73.346,311.005 75.913,313.572 81.144,308.341 					"/>
				</g>
				
					<line style="fill:none;stroke:#FFFFFF;stroke-width:0.8529;stroke-linecap:round;stroke-linejoin:round;stroke-miterlimit:10;" x1="102.546" y1="315.217" x2="198.973" y2="315.217"/>
				
					<line style="fill:none;stroke:#FFFFFF;stroke-width:0.8529;stroke-linecap:round;stroke-linejoin:round;stroke-miterlimit:10;" x1="102.546" y1="308.955" x2="198.973" y2="308.955"/>
				
					<line style="fill:none;stroke:#FFFFFF;stroke-width:0.8529;stroke-linecap:round;stroke-linejoin:round;stroke-miterlimit:10;" x1="123.319" y1="302.692" x2="198.973" y2="302.692"/>
				
					<line style="fill:none;stroke:#FFFFFF;stroke-width:0.8529;stroke-linecap:round;stroke-linejoin:round;stroke-miterlimit:10;" x1="102.546" y1="321.48" x2="198.973" y2="321.48"/>
			</g>
			<g>
				
					<line style="fill:none;stroke:#FFFFFF;stroke-width:0.8529;stroke-linecap:round;stroke-linejoin:round;stroke-miterlimit:10;" x1="102.546" y1="357.092" x2="198.973" y2="357.092"/>
				
					<line style="fill:none;stroke:#FFFFFF;stroke-width:0.8529;stroke-linecap:round;stroke-linejoin:round;stroke-miterlimit:10;" x1="102.546" y1="350.829" x2="198.973" y2="350.829"/>
				
					<line style="fill:none;stroke:#FFFFFF;stroke-width:0.8529;stroke-linecap:round;stroke-linejoin:round;stroke-miterlimit:10;" x1="123.319" y1="344.567" x2="198.973" y2="344.567"/>
				
					<line style="fill:none;stroke:#FFFFFF;stroke-width:0.8529;stroke-linecap:round;stroke-linejoin:round;stroke-miterlimit:10;" x1="102.546" y1="363.354" x2="198.973" y2="363.354"/>
				<g>
					<path style="fill:none;stroke:#E96C58;stroke-width:0.8529;stroke-miterlimit:10;" d="M82.898,348.286
						c3.122,3.122,3.122,8.184,0,11.307c-3.122,3.122-8.184,3.122-11.307,0c-3.122-3.122-3.122-8.184,0-11.307
						C74.714,345.163,79.776,345.163,82.898,348.286z"/>
					
						<line style="fill:none;stroke:#E96C58;stroke-width:0.8529;stroke-linecap:round;stroke-linejoin:round;stroke-miterlimit:10;" x1="82.73" y1="359.751" x2="84.956" y2="361.977"/>
				</g>
			</g>
			<g>
				
					<line style="fill:none;stroke:#FFFFFF;stroke-width:0.8529;stroke-linecap:round;stroke-linejoin:round;stroke-miterlimit:10;" x1="102.546" y1="398.966" x2="198.973" y2="398.966"/>
				
					<line style="fill:none;stroke:#FFFFFF;stroke-width:0.8529;stroke-linecap:round;stroke-linejoin:round;stroke-miterlimit:10;" x1="102.546" y1="392.704" x2="198.973" y2="392.704"/>
				
					<line style="fill:none;stroke:#FFFFFF;stroke-width:0.8529;stroke-linecap:round;stroke-linejoin:round;stroke-miterlimit:10;" x1="123.319" y1="386.441" x2="198.973" y2="386.441"/>
				
					<line style="fill:none;stroke:#FFFFFF;stroke-width:0.8529;stroke-linecap:round;stroke-linejoin:round;stroke-miterlimit:10;" x1="102.546" y1="405.229" x2="198.973" y2="405.229"/>
				<g>
					<g>
						
							<rect x="67.655" y="391.766" style="fill:none;stroke:#4FB0C3;stroke-width:0.8529;stroke-linecap:round;stroke-linejoin:round;stroke-miterlimit:10;" width="19.181" height="11.81"/>
						
							<path style="fill:none;stroke:#4FB0C3;stroke-width:0.8529;stroke-linecap:round;stroke-linejoin:round;stroke-miterlimit:10;" d="
							M83.017,391.766H71.473v-2.132c0-3.188,2.584-5.772,5.772-5.772h0c3.188,0,5.772,2.584,5.772,5.772V391.766z"/>
					</g>
				</g>
			</g>
		</g>
	</g>
	<g>
		<g>
			<rect x="65.723" y="100.831" style="fill:#FFFFFF;" width="60.435" height="60.435"/>
			<rect x="65.723" y="92.789" style="fill:#222733;" width="60.435" height="8.042"/>
			<g>
				
					<text transform="matrix(1 0 0 1 86.5928 144.1264)" style="fill:#222733; font-family:'MontserratAlternates-ExtraBold'; font-size:44.3411px;">A</text>
			</g>
		</g>
		<g>
			<path style="fill:#4FB0C3;" d="M528.891,104.489h-68.479c-2.945,0-5.332-2.387-5.332-5.332V52.056
				c0-2.945,2.387-5.332,5.332-5.332h68.479c2.945,0,5.332,2.387,5.332,5.332v47.102
				C534.223,102.102,531.836,104.489,528.891,104.489z"/>
			<g>
				
					<polyline style="fill:none;stroke:#FFFFFF;stroke-width:2.2745;stroke-linecap:round;stroke-linejoin:round;stroke-miterlimit:10;" points="
					472.761,86.209 494.652,65.005 516.542,86.209 				"/>
				
					<ellipse transform="matrix(0.1606 -0.987 0.987 0.1606 311.7648 538.9949)" style="fill:#E96C58;" cx="472.761" cy="86.209" rx="7.539" ry="7.539"/>
				
					<ellipse transform="matrix(0.1606 -0.987 0.987 0.1606 348.5164 582.208)" style="fill:#E96C58;" cx="516.542" cy="86.209" rx="7.539" ry="7.539"/>
				
					<ellipse transform="matrix(0.1606 -0.987 0.987 0.1606 351.0689 542.8024)" style="fill:#E96C58;" cx="494.652" cy="65.005" rx="7.539" ry="7.539"/>
			</g>
		</g>
		<path style="fill:#FFFFFF;" d="M704.564,181.686c-2.667-0.191-5.207,0.263-7.488,1.214c-3.46-7.993-11.411-13.589-20.675-13.589
			c-10.707,0-19.65,7.477-21.941,17.489c-2.353-0.674-4.943-0.791-7.655-0.02c-6.171,1.757-10.277,7.612-10.277,14.027
			c0,7.486,6.069,13.555,13.555,13.555h56.088c7.487,0,13.556-6.069,13.556-13.555v-2.321
			C719.727,189.828,713.2,182.305,704.564,181.686z"/>
		<path style="fill:#FFFFFF;" d="M250.782,71.812c-2.667-0.191-5.207,0.263-7.488,1.214c-3.46-7.993-11.411-13.589-20.675-13.589
			c-10.707,0-19.65,7.477-21.941,17.489c-2.353-0.674-4.943-0.791-7.655-0.019c-6.17,1.757-10.277,7.612-10.277,14.027
			c0,7.487,6.069,13.556,13.555,13.556h56.088c7.486,0,13.556-6.069,13.556-13.556v-2.321
			C265.945,79.954,259.419,72.431,250.782,71.812z"/>
	</g>
</g>
</svg>
