<?xml version="1.0" standalone="no"?>
<!DOCTYPE svg PUBLIC "-//W3C//DTD SVG 20010904//EN"
 "http://www.w3.org/TR/2001/REC-SVG-20010904/DTD/svg10.dtd">
<svg version="1.0" xmlns="http://www.w3.org/2000/svg"
 width="1920.000000pt" height="1013.000000pt" viewBox="0 0 1920.000000 1013.000000"
 preserveAspectRatio="xMidYMid meet">

<g transform="translate(0.000000,1013.000000) scale(0.100000,-0.100000)"
fill="#000000" stroke="none">
<path d="M0 5065 l0 -5065 5319 0 c4853 0 5319 1 5325 16 10 25 -2 34 -44 34
-21 0 -40 4 -42 8 -6 16 -67 52 -86 52 -12 0 -24 4 -27 10 -3 5 3 10 14 10 16
0 21 6 21 25 0 23 -4 25 -40 25 -38 0 -40 -2 -40 -30 0 -28 -2 -30 -40 -30
-36 0 -40 3 -40 25 0 23 -4 25 -40 25 -29 0 -40 4 -40 15 0 11 -12 15 -42 16
-24 1 -33 4 -20 6 21 4 32 23 14 23 -5 0 -19 9 -31 19 -13 11 -28 22 -34 25
-24 10 15 23 61 21 32 -2 35 -1 10 2 -25 3 -38 9 -38 19 0 10 -12 14 -40 14
-22 0 -40 -4 -40 -9 0 -5 -10 -12 -22 -16 l-23 -7 25 -8 c21 -7 19 -8 -17 -9
-35 -1 -43 2 -43 17 0 9 -10 22 -22 27 -15 6 -23 19 -23 35 0 17 -7 26 -25 30
-23 6 -24 7 -6 17 17 9 17 11 1 17 -19 7 -38 -1 -30 -14 3 -4 -4 -6 -15 -3
-26 7 -25 17 3 31 19 9 14 11 -31 11 -54 1 -92 14 -92 31 0 15 30 12 46 -5 9
-8 20 -15 25 -15 5 0 9 7 9 15 0 8 -8 15 -19 15 -11 0 -21 9 -24 21 -4 15 -11
20 -21 16 -10 -4 -16 -1 -16 8 0 8 -7 15 -15 15 -8 0 -15 -4 -15 -10 0 -5 -5
-10 -11 -10 -8 0 -8 5 1 15 14 17 7 69 -11 92 -6 7 -25 13 -41 13 -27 0 -29 2
-26 33 3 28 0 32 -19 31 -19 0 -23 5 -23 27 0 15 -4 29 -9 31 -6 2 -11 23 -13
47 l-2 43 -48 -6 -48 -7 0 59 c0 53 -11 82 -32 82 -4 0 -8 -15 -8 -33 0 -34
-15 -57 -37 -57 -7 0 -13 7 -13 15 0 8 -7 15 -15 15 -8 0 -15 7 -15 15 0 22
-36 38 -60 25 -18 -9 -20 -8 -20 15 0 18 -5 25 -20 25 -17 0 -20 7 -20 40 0
33 -3 40 -20 40 -12 0 -20 7 -20 16 0 11 -5 14 -16 10 -9 -3 -18 -6 -20 -6 -2
0 -4 -22 -4 -50 0 -45 2 -50 23 -51 12 -1 -5 -5 -38 -10 -38 -6 -61 -5 -63 1
-2 6 -28 7 -63 3 -41 -4 -59 -2 -59 6 0 6 -16 11 -39 11 -22 0 -46 7 -55 15
-8 8 -24 15 -35 15 -12 0 -21 6 -21 15 0 8 -4 15 -10 15 -5 0 -7 -13 -4 -30 6
-29 5 -30 -32 -30 -26 0 -53 9 -79 27 -25 17 -40 22 -43 15 -2 -8 -33 -13 -85
-14 -71 -1 -76 -2 -37 -8 l45 -7 -57 -1 c-31 -1 -59 -6 -62 -11 -8 -13 19 -32
36 -26 7 3 22 -1 33 -9 19 -14 19 -15 -9 -22 -16 -4 -43 -2 -61 5 -40 14 -45
14 -45 -3 0 -8 8 -17 18 -21 16 -7 15 -8 -3 -15 -11 -5 -29 -9 -40 -9 -11 1
-14 3 -7 6 6 2 12 22 12 43 0 21 3 40 7 43 5 2 2 2 -5 0 -8 -1 -20 -3 -28 -3
-10 0 -14 -12 -14 -40 0 -22 -4 -40 -10 -40 -5 0 -10 9 -10 20 0 17 -7 20 -40
20 -28 0 -40 -4 -40 -15 0 -10 -16 -15 -62 -18 -58 -3 -57 -3 20 -5 79 -2 105
-13 61 -27 -16 -6 -20 -13 -17 -36 l5 -29 -77 0 c-42 0 -90 -4 -106 -9 -70
-22 -84 -23 -84 -1 0 13 -7 20 -20 20 -13 0 -20 -7 -20 -20 0 -11 -5 -20 -11
-20 -6 0 -9 10 -7 23 2 22 -2 27 -24 27 -10 0 -9 -3 1 -9 7 -5 10 -14 7 -20
-10 -16 -26 -14 -26 4 0 21 -30 19 -31 -2 0 -13 -2 -14 -6 -4 -6 16 -40 51
-49 51 -4 0 -13 -8 -21 -17 -12 -16 -14 -13 -11 24 3 36 1 43 -15 43 -10 0
-25 -7 -33 -15 -9 -8 -24 -15 -34 -15 -10 0 -25 7 -34 15 -8 8 -19 15 -25 15
-6 0 -11 11 -11 24 0 17 -7 26 -25 30 -30 8 -33 26 -5 26 29 0 24 12 -16 38
-27 17 -39 21 -44 12 -5 -8 -33 -11 -81 -10 -129 4 -139 2 -139 -20 0 -13 7
-20 20 -20 22 0 27 -15 8 -26 -6 -4 -16 0 -23 9 -8 12 -27 17 -59 17 -40 0
-46 -3 -46 -21 0 -12 7 -27 16 -33 14 -11 14 -15 1 -46 -15 -34 -15 -34 -16
-9 -1 28 -29 48 -36 26 -2 -6 -5 -36 -8 -65 -3 -39 -1 -52 9 -52 8 0 14 -7 14
-15 0 -8 7 -15 15 -15 9 0 12 -6 8 -16 -6 -16 -7 -16 -18 0 -7 9 -25 16 -41
16 -21 0 -25 -3 -15 -9 9 -6 11 -16 7 -27 -6 -15 -9 -16 -16 -5 -6 11 -14 9
-41 -10 -19 -13 -35 -27 -37 -31 -2 -4 -12 -8 -23 -8 -10 0 -19 -4 -19 -9 0
-14 -33 -23 -40 -10 -6 8 -9 8 -14 0 -10 -16 -36 -13 -36 4 0 8 -5 15 -10 15
-6 0 -20 9 -32 20 -12 11 -34 25 -49 32 -24 11 -27 16 -22 43 6 27 5 29 -10
16 -20 -16 -42 -3 -53 31 -5 17 -8 18 -16 7 -7 -11 -11 -11 -15 -1 -7 17 -23
15 -23 -4 0 -8 -4 -12 -10 -9 -5 3 -10 15 -10 26 0 10 -4 19 -10 19 -5 0 -10
9 -10 21 0 15 -5 19 -16 15 -8 -3 -13 -2 -9 3 3 5 2 17 -1 26 -4 9 -10 12 -13
7 -3 -6 -6 9 -7 33 0 24 -9 55 -18 70 -12 18 -15 36 -11 59 6 28 3 34 -14 39
-24 6 -29 27 -6 27 20 0 19 16 -1 24 -11 4 -15 14 -12 31 3 14 1 25 -3 25 -5
0 -9 -11 -9 -24 0 -15 -7 -26 -20 -29 -16 -4 -20 0 -20 19 0 21 -5 24 -42 25
-24 1 -33 4 -20 6 12 2 22 8 22 13 0 13 -34 22 -38 11 -5 -14 -79 -14 -84 0
-4 12 -38 1 -38 -12 0 -5 9 -9 20 -9 32 0 23 -16 -17 -28 -27 -8 -39 -8 -44 0
-5 7 -17 4 -37 -11 -17 -11 -37 -21 -46 -21 -9 0 -16 -4 -16 -10 0 -5 14 -10
30 -10 34 0 40 -15 10 -25 -11 -3 -20 -10 -20 -15 0 -5 -9 -12 -20 -15 -11 -3
-20 -15 -20 -25 0 -15 -18 -30 -36 -30 -2 0 -4 14 -4 30 0 17 -4 30 -10 30 -5
0 -10 -18 -10 -39 0 -22 -4 -43 -10 -46 -5 -3 -10 -14 -10 -24 0 -10 -9 -26
-20 -36 -11 -10 -20 -28 -20 -39 0 -13 -11 -28 -27 -38 -37 -21 -82 -63 -62
-55 12 4 16 -1 15 -23 -1 -15 -4 -26 -8 -24 -3 2 -19 -1 -34 -7 -21 -7 -25
-12 -15 -18 16 -10 6 -31 -15 -31 -16 0 -19 -26 -4 -35 12 -7 1 -20 -47 -53
-41 -29 -43 -28 -43 11 0 22 -5 34 -14 34 -8 0 -11 -8 -9 -18 6 -21 -18 -49
-41 -49 -9 0 -16 -8 -16 -20 0 -11 -7 -20 -15 -20 -25 0 -65 -46 -65 -75 0
-24 -2 -25 -60 -25 -53 0 -60 2 -60 19 0 16 -8 20 -37 23 -25 2 -38 8 -39 18
-1 8 -2 21 -3 28 0 7 -11 17 -23 22 l-23 9 23 0 c27 1 30 32 5 52 -13 11 -17
11 -20 2 -3 -7 -14 -13 -25 -13 -18 0 -19 -5 -16 -60 3 -57 2 -60 -19 -60 -20
0 -23 5 -23 44 0 38 -3 45 -25 50 -24 6 -36 26 -15 26 21 0 9 20 -15 26 -18 4
-25 13 -25 31 0 13 -5 33 -10 44 -8 13 -7 19 0 19 7 0 10 15 8 37 -2 28 -8 39
-23 42 -11 2 -27 13 -35 25 -14 20 -20 34 -53 121 -8 19 -27 51 -44 70 -19 21
-33 49 -36 72 -2 21 -17 67 -32 103 -15 36 -29 85 -30 111 -2 25 -8 55 -14 67
-6 12 -16 32 -22 43 -8 17 -8 24 3 31 9 6 6 7 -9 3 -18 -5 -23 -2 -23 12 0 10
-11 30 -24 44 -13 14 -26 34 -29 45 -4 18 -5 18 -6 -1 -1 -16 -5 -13 -22 15
-14 22 -17 36 -10 38 16 5 13 32 -4 32 -17 0 -39 36 -29 51 3 6 3 27 -2 47
l-7 37 -8 -35 c-5 -19 -6 -41 -4 -48 3 -7 0 -10 -5 -7 -6 3 -10 24 -10 46 0
21 -4 39 -10 39 -5 0 -10 -8 -10 -17 0 -15 -2 -16 -10 -3 -5 8 -10 38 -10 66
0 61 -23 92 -39 53 -10 -24 -10 -24 -10 4 -1 15 -7 27 -14 27 -7 0 -18 -12
-24 -27 -11 -26 -11 -23 -10 25 0 41 5 56 20 63 18 10 18 11 1 30 -17 18 -16
21 26 59 24 22 40 40 35 40 -4 0 0 9 10 20 10 11 24 20 32 20 7 0 13 9 13 19
0 16 5 18 40 14 31 -4 40 -2 40 9 0 10 24 23 68 38 89 30 175 70 185 87 4 7
14 13 21 13 21 0 79 98 109 183 8 20 48 22 128 6 30 -6 149 -11 271 -10 l217
0 12 -42 c7 -23 12 -45 11 -48 0 -3 11 -20 26 -38 33 -38 134 -77 225 -86 34
-4 87 -11 117 -17 60 -12 321 -17 314 -7 -4 8 21 19 42 19 15 0 97 50 102 63
2 4 9 7 15 7 7 0 26 12 42 28 16 15 30 26 30 24 0 -2 14 2 30 8 32 12 61 10
170 -14 149 -33 304 -46 609 -51 206 -4 314 -10 323 -17 10 -8 17 -8 25 0 7 7
39 11 78 10 l65 -1 -60 -8 c-33 -4 120 -5 340 -2 220 2 414 3 430 2 70 -6 176
-1 266 11 93 13 97 13 133 -8 20 -12 43 -22 50 -22 8 0 19 -7 26 -15 7 -9 39
-23 71 -32 32 -9 56 -19 54 -23 -3 -5 2 -10 10 -14 8 -3 17 -1 20 4 4 6 15 10
26 10 11 0 17 5 14 10 -8 14 18 13 32 -1 8 -8 16 -6 29 9 10 12 21 19 26 16 4
-3 8 0 8 6 0 6 5 8 12 4 7 -5 5 -11 -7 -21 -17 -12 -17 -13 -2 -13 9 0 17 4
17 8 0 16 75 39 90 29 10 -6 33 -2 69 12 33 12 59 17 65 12 6 -5 67 -5 141 1
226 17 911 12 1110 -7 116 -11 362 -33 380 -34 11 0 52 -3 90 -6 39 -3 93 -7
120 -9 28 -2 92 -9 144 -16 71 -9 101 -9 119 0 18 8 27 8 32 0 4 -6 15 -8 24
-4 10 4 21 2 25 -3 6 -9 110 -20 291 -30 140 -7 218 -4 226 9 3 5 14 6 25 3
11 -4 19 -2 19 4 0 6 14 11 32 11 30 0 31 1 12 15 -19 14 -11 20 23 16 6 -1
14 3 18 9 3 5 17 10 31 10 13 0 34 10 46 22 12 12 36 22 52 23 17 1 39 5 49
10 10 4 21 5 24 1 3 -3 11 -2 17 3 6 5 56 10 111 11 154 2 173 1 178 -7 11
-17 322 7 377 29 62 25 369 21 480 -7 14 -4 39 -9 55 -11 54 -8 60 -9 74 -18
10 -6 12 -5 7 2 -5 9 14 12 69 12 45 0 74 -4 70 -9 -3 -5 8 -3 24 5 17 8 49
17 73 20 23 3 45 9 48 13 10 17 100 27 260 30 91 2 168 5 173 8 4 2 7 0 7 -5
0 -5 21 -13 47 -17 57 -8 210 -68 258 -101 19 -13 35 -20 35 -16 0 4 5 0 10
-9 5 -9 26 -20 45 -23 20 -4 39 -14 42 -22 3 -7 11 -14 19 -14 17 0 18 -26 2
-34 -10 -5 -10 -7 0 -12 6 -3 12 -14 12 -25 0 -12 7 -19 20 -19 13 0 20 7 20
20 0 13 -7 20 -20 20 -11 0 -20 5 -20 10 0 14 42 12 63 -4 25 -19 21 -39 -13
-59 -16 -10 -30 -25 -30 -33 0 -8 -4 -14 -10 -14 -5 0 -10 12 -10 26 0 14 -7
32 -15 40 -13 13 -14 7 -8 -53 3 -37 10 -69 15 -71 4 -2 8 -30 8 -62 0 -49 -3
-58 -17 -56 -10 0 -21 8 -25 16 -5 12 -7 10 -8 -5 -5 -78 -17 -115 -36 -115
-11 0 -15 -12 -15 -47 0 -81 -5 -122 -18 -137 -7 -8 -10 -24 -6 -36 4 -11 2
-20 -4 -20 -6 0 -11 -17 -11 -38 0 -26 -6 -42 -19 -51 -15 -11 -17 -18 -8 -32
8 -13 7 -21 -6 -34 -9 -9 -17 -26 -17 -38 0 -16 -3 -18 -9 -9 -6 10 -10 7 -13
-12 -4 -18 -1 -26 8 -26 18 0 18 -2 -7 -71 -12 -32 -26 -57 -33 -56 -6 1 -11
-7 -12 -18 -2 -38 -16 -95 -24 -95 -4 0 -10 -18 -14 -40 -3 -22 -11 -40 -16
-40 -6 0 -10 -24 -10 -53 0 -41 -4 -55 -20 -65 -17 -10 -20 -10 -21 5 0 10 -5
5 -10 -12 -5 -19 -5 -31 2 -36 7 -4 6 -16 -5 -37 -9 -17 -16 -35 -15 -39 3
-20 -2 -34 -11 -28 -6 3 -23 -3 -39 -15 -28 -19 -31 -20 -70 -4 -37 15 -42 15
-56 0 -9 -9 -21 -16 -26 -16 -5 0 -9 -9 -9 -19 0 -27 -40 -39 -55 -17 -16 21
-34 20 -51 -1 -12 -16 -13 -15 -14 15 0 31 2 32 43 34 23 1 -41 5 -143 8 -234
9 -300 4 -300 -21 0 -12 -7 -19 -20 -19 -17 0 -20 7 -20 40 0 33 -3 40 -20 40
-16 0 -20 7 -20 30 0 17 -2 30 -5 30 -2 0 -26 -13 -52 -30 l-47 -30 32 0 c18
0 32 -4 32 -10 0 -5 -4 -10 -9 -10 -5 0 -17 -8 -27 -17 -13 -13 -19 -14 -22
-5 -3 11 -42 18 -42 7 0 -3 7 -16 15 -29 22 -34 10 -59 -25 -51 -34 7 -51 -12
-27 -30 24 -18 21 -35 -7 -35 -13 0 -26 -7 -30 -15 -9 -24 -26 -17 -26 10 0
19 5 25 22 25 12 0 19 3 15 6 -3 4 -18 4 -32 0 -21 -5 -25 -12 -25 -43 0 -34
-28 -73 -52 -73 -4 0 -8 -7 -8 -15 0 -13 -7 -15 -36 -9 -22 4 -39 2 -43 -4 -4
-7 -17 -6 -39 5 -31 15 -32 17 -16 34 19 21 50 25 56 7 3 -8 9 -8 23 -1 16 9
12 12 -26 18 -24 3 -52 9 -61 11 -12 4 -18 -3 -21 -23 l-4 -28 -14 32 c-14 35
-27 41 -47 21 -9 -9 -12 -6 -12 14 0 24 -2 25 -55 22 -42 -2 -57 1 -62 11 -3
8 -14 15 -24 15 -11 0 -19 7 -19 18 -1 16 -1 16 -14 0 -7 -10 -19 -18 -26 -18
-7 0 -19 8 -26 18 -13 16 -13 16 -14 0 0 -15 -9 -18 -57 -17 -32 1 -50 3 -40
6 9 2 17 10 17 18 0 9 -24 15 -80 20 -73 6 -80 9 -80 29 0 14 -13 30 -40 46
-22 14 -40 32 -40 41 0 9 -14 20 -36 27 -30 9 -39 8 -51 -4 -21 -20 -36 -13
-48 22 -5 16 -22 40 -37 53 -16 13 -28 32 -28 42 0 11 -6 19 -12 19 -9 0 -8 4
2 10 12 7 13 13 4 27 -13 21 -1 37 32 46 10 2 -19 5 -66 4 -69 0 -77 -1 -40
-7 l45 -7 -42 -1 c-24 -1 -43 -6 -43 -12 0 -13 -11 -13 -30 0 -13 9 -13 11 0
20 12 7 12 12 2 22 -7 7 -12 38 -12 75 l0 63 -40 0 -40 0 0 -46 c0 -39 -5 -51
-35 -80 -44 -43 -65 -44 -65 -4 0 17 5 30 10 30 6 0 10 9 10 20 0 13 7 20 20
20 11 0 20 5 20 10 0 6 -18 10 -40 10 -33 0 -40 -3 -40 -20 0 -12 -7 -20 -17
-20 -16 0 -16 -1 -1 -17 16 -15 15 -17 -7 -35 -14 -11 -31 -34 -38 -51 -23
-54 -39 -101 -44 -129 -3 -15 -11 -33 -19 -39 -8 -6 -14 -20 -14 -30 0 -10 -5
-21 -10 -24 -6 -3 -10 -22 -10 -41 0 -22 -5 -34 -13 -34 -8 0 -19 -11 -25 -25
-6 -14 -18 -25 -27 -25 -18 0 -20 -26 -2 -33 7 -2 8 -8 3 -13 -5 -5 -11 -4
-13 4 -3 6 -13 12 -24 12 -16 0 -19 -7 -19 -40 0 -33 -3 -40 -20 -40 -17 0
-20 -7 -20 -40 0 -33 -3 -40 -20 -40 -19 0 -20 -7 -20 -120 0 -113 -1 -120
-20 -120 -17 0 -20 -7 -20 -40 0 -40 0 -40 -39 -40 -22 0 -41 -4 -43 -8 -4 -9
-63 -52 -72 -52 -3 0 -6 14 -6 30 0 28 -2 30 -40 30 l-40 0 0 -40 0 -40 -40 0
c-22 0 -40 5 -40 10 0 13 -72 2 -81 -13 -5 -6 -20 -7 -45 -1 -22 5 -65 8 -96
6 -54 -4 -58 -6 -58 -28 0 -21 4 -24 40 -24 33 0 40 4 40 19 0 23 17 31 53 24
18 -4 27 -12 27 -24 0 -18 89 -19 3820 -19 l3820 0 0 5065 0 5065 -9600 0
-9600 0 0 -5065z m12346 2690 c51 -15 93 -39 84 -49 -3 -3 -30 2 -59 10 -68
20 -141 12 -141 -16 0 -10 9 -25 21 -34 18 -12 20 -20 14 -55 -4 -23 -10 -41
-15 -41 -4 0 -11 -11 -14 -25 -4 -15 -18 -30 -34 -37 -21 -9 -23 -12 -9 -15
23 -6 22 -13 -11 -49 -31 -35 -58 -48 -68 -32 -4 7 -10 6 -16 -3 -7 -11 -11
-11 -15 -1 -2 6 -12 12 -21 12 -13 0 -14 -2 -4 -9 10 -6 8 -10 -8 -14 -22 -6
-19 -27 3 -27 8 0 7 3 -2 9 -10 6 -2 9 23 9 39 0 57 -12 23 -15 -65 -6 -99
-16 -86 -24 10 -6 8 -9 -8 -9 -12 0 -25 -5 -28 -10 -4 -6 -11 -8 -16 -5 -5 4
-9 1 -9 -4 0 -14 -4 -15 59 9 37 15 73 20 118 19 63 -2 66 -1 98 34 19 21 42
37 53 37 17 0 18 -5 12 -44 -7 -46 -5 -47 40 -18 2 2 -2 8 -10 13 -12 9 -12
10 3 5 9 -3 17 -1 17 4 0 6 10 10 23 9 21 0 21 -1 2 -9 -19 -8 -19 -9 -1 -9
15 -1 16 -4 6 -16 -10 -12 -10 -15 1 -16 11 0 11 -2 1 -6 -10 -4 -9 -8 5 -19
11 -8 13 -13 6 -14 -7 0 -13 -10 -13 -22 0 -17 -3 -19 -9 -9 -5 7 -14 11 -20
7 -7 -5 -9 -1 -5 8 3 9 10 13 16 10 6 -4 8 7 4 26 -6 39 -16 52 -16 21 0 -12
-9 -44 -21 -71 l-21 -48 22 -88 c29 -114 25 -272 -9 -347 -24 -56 -25 -61 -9
-51 7 4 8 3 4 -5 -4 -6 -12 -8 -18 -5 -8 5 -9 1 -5 -10 4 -9 3 -15 -2 -11 -11
6 -57 -65 -53 -80 2 -5 0 -7 -4 -3 -10 11 -35 -12 -27 -26 3 -6 3 -8 -1 -4 -5
4 -31 -12 -59 -35 -101 -82 -201 -128 -322 -147 -67 -11 -195 -4 -195 11 0 4
21 15 48 23 49 17 126 73 161 117 l20 26 -55 1 c-39 0 -66 7 -97 25 -23 13
-47 22 -54 20 -6 -2 -14 1 -18 6 -3 7 0 8 9 5 11 -4 13 0 9 15 -4 18 -1 21 23
22 24 0 19 4 -24 18 -58 20 -82 38 -123 94 -25 34 -29 36 -38 20 -6 -10 -10
-13 -11 -8 0 26 20 39 57 37 l38 -2 -32 19 c-17 11 -42 36 -56 55 -13 20 -26
34 -28 32 -2 -2 -5 25 -7 60 -4 75 7 85 59 56 19 -11 45 -23 57 -27 21 -6 23
-5 13 13 -8 16 -7 23 7 33 15 13 16 12 3 -3 -12 -16 -10 -20 24 -34 20 -8 42
-13 48 -10 7 2 4 5 -5 5 -10 1 -18 7 -18 15 0 9 -8 13 -22 10 -13 -2 -17 -2
-10 2 6 3 10 10 7 15 -4 5 2 6 11 2 11 -4 15 -3 10 5 -3 6 -1 14 6 19 7 4 19
19 26 32 12 20 11 26 -9 47 -13 14 -34 24 -50 24 -15 0 -31 5 -34 10 -3 6 -15
10 -26 10 -10 0 -19 -4 -19 -10 0 -5 -7 -10 -16 -10 -9 0 -18 -9 -21 -21 -4
-15 -12 -19 -32 -17 -25 3 -26 1 -27 -47 -1 -75 -3 -85 -16 -82 -7 1 -12 -15
-13 -43 -1 -25 0 -37 2 -27 6 24 27 16 31 -12 3 -19 0 -22 -17 -16 -12 4 -21
2 -21 -4 0 -6 11 -12 25 -12 38 -2 43 -3 52 -13 4 -5 3 -6 -4 -2 -6 3 -14 2
-18 -4 -16 -27 -81 12 -70 42 3 7 -4 24 -15 38 l-20 25 0 -27 c0 -15 5 -30 10
-33 6 -3 10 -10 10 -16 0 -14 -20 -11 -20 4 0 6 -21 35 -46 62 -26 28 -57 66
-70 87 -27 43 -38 51 -73 52 -24 1 -26 5 -29 48 -4 60 34 144 90 200 56 56
119 82 558 235 423 147 475 158 576 128z m-4362 -30 c193 -49 969 -293 1211
-380 123 -45 225 -93 225 -106 0 -6 -6 -6 -17 0 -102 53 -1119 384 -1408 457
-144 37 -251 33 -368 -12 -45 -17 -40 -1 6 23 94 48 208 54 351 18z m-128 -96
c3 -5 -11 -9 -30 -9 -33 0 -44 8 -31 22 8 7 54 -3 61 -13z m-276 -68 c18 -35
11 -61 -64 -214 -40 -84 -88 -195 -106 -247 -17 -52 -35 -104 -40 -115 -12
-28 -87 -257 -160 -485 -64 -204 -87 -271 -100 -305 -5 -11 -19 -51 -31 -90
-22 -69 -45 -115 -58 -115 -9 0 -13 109 -5 122 4 6 8 29 9 52 3 39 25 138 58
251 7 28 24 86 37 130 12 44 26 89 30 100 5 11 13 38 18 60 42 163 210 689
247 770 22 49 55 87 85 98 33 12 69 7 80 -12z m4611 -168 c13 -16 12 -17 -3
-4 -11 8 -18 9 -18 3 0 -7 -7 -9 -17 -5 -15 6 -15 7 3 14 10 4 20 8 20 8 1 1
8 -7 15 -16z m-14 -29 c-3 -3 -12 -4 -19 -1 -8 3 -5 6 6 6 11 1 17 -2 13 -5z
m248 -34 c3 -5 1 -10 -4 -10 -6 0 -11 5 -11 10 0 6 2 10 4 10 3 0 8 -4 11 -10z
m-3686 -185 c130 -42 141 -48 137 -68 -21 -102 -12 -185 31 -275 32 -69 114
-151 181 -181 28 -14 52 -30 52 -36 0 -17 -71 -259 -79 -267 -10 -12 -121 39
-193 87 -36 25 -85 66 -108 91 -23 25 -44 43 -47 41 -2 -3 -42 -129 -88 -282
-46 -152 -97 -304 -113 -338 -82 -176 -276 -297 -474 -297 -149 0 -266 46
-383 150 -105 93 -161 208 -172 355 -18 236 160 481 395 546 84 24 218 25 293
3 96 -29 92 -15 47 -171 -22 -76 -42 -140 -44 -142 -1 -2 -23 5 -48 14 -32 12
-65 16 -115 13 -85 -4 -139 -37 -185 -112 -25 -40 -30 -58 -30 -114 -1 -140
98 -241 237 -242 71 0 121 24 169 79 35 41 85 183 168 476 38 133 197 656 210
691 5 13 11 24 14 24 2 0 68 -20 145 -45z m2811 -70 c-7 -8 -17 -15 -23 -15
-6 0 -2 7 9 15 25 19 30 19 14 0z m-175 -185 c3 -5 1 -10 -4 -10 -6 0 -11 5
-11 10 0 6 2 10 4 10 3 0 8 -4 11 -10z m100 2 c-2 -3 0 -13 6 -23 5 -11 6 -19
1 -19 -5 0 -14 -10 -20 -22 -8 -18 -11 -19 -11 -5 -1 9 -9 17 -18 17 -12 1 -9
5 9 13 21 9 25 15 18 27 -8 13 -10 12 -10 -4 0 -11 -3 -17 -6 -13 -11 10 3 34
20 34 9 0 14 -2 11 -5z m-65 -63 c0 -6 -4 -7 -10 -4 -5 3 -10 11 -10 16 0 6 5
7 10 4 6 -3 10 -11 10 -16z m1173 -39 c14 -11 29 -20 34 -20 10 0 35 -48 59
-112 19 -55 30 -60 39 -18 4 20 13 30 25 30 49 0 68 -104 28 -156 -12 -16 -23
-30 -24 -32 -1 -2 -10 -5 -21 -6 -10 -2 -18 -7 -19 -12 0 -5 -3 -16 -7 -24 -3
-8 -7 -24 -9 -35 -4 -23 -45 -38 -226 -85 -128 -33 -167 -32 -175 7 -7 37 18
77 73 119 28 21 50 42 50 46 0 5 20 23 45 40 30 22 45 39 45 54 0 12 5 24 11
26 10 3 17 44 23 148 2 25 4 46 5 48 3 7 21 0 44 -18z m-320 -135 c-3 -9 -8
-14 -10 -11 -3 3 -2 9 2 15 9 16 15 13 8 -4z m-559 -61 c9 -3 14 -10 11 -14
-3 -5 4 -6 15 -3 12 3 20 0 20 -6 0 -7 4 -10 9 -7 5 3 15 -1 22 -10 11 -13 7
-20 -26 -49 -22 -18 -46 -30 -54 -27 -10 4 -12 1 -6 -9 5 -8 4 -11 -1 -6 -11
10 -14 68 -3 62 4 -3 10 -1 14 5 3 6 0 13 -8 16 -16 6 -19 34 -3 35 6 0 2 4
-9 9 -23 10 -5 13 19 4z m1608 -210 c416 -57 1206 -204 1353 -252 l30 -10 -36
-1 c-37 -1 -382 46 -539 74 -134 24 -565 93 -680 109 -333 48 -460 38 -631
-50 -36 -19 -73 -34 -82 -34 -31 0 -17 28 31 62 157 114 292 138 554 102z
m-7522 -234 c495 -11 724 -24 817 -45 82 -19 177 -60 231 -98 36 -26 42 -35
42 -67 0 -41 -8 -54 -24 -41 -25 19 -164 69 -206 75 -162 20 -262 27 -565 36
-187 6 -410 12 -495 15 -350 11 -952 13 -1060 5 -143 -12 -186 -20 -227 -45
-29 -18 -33 -25 -33 -66 0 -37 -6 -53 -31 -83 -20 -22 -43 -71 -62 -129 -17
-50 -42 -117 -55 -147 -19 -41 -27 -81 -33 -160 -4 -57 -5 -108 -2 -114 3 -5
1 -6 -4 -3 -6 4 -13 -2 -16 -13 -3 -10 0 -21 7 -23 8 -3 8 -12 -1 -38 -7 -19
-15 -95 -18 -169 -3 -74 -10 -164 -15 -200 -5 -36 -12 -121 -15 -190 -4 -69
-8 -132 -11 -140 -2 -8 -6 -80 -9 -160 -3 -80 -10 -183 -15 -230 -5 -47 -12
-114 -15 -150 -16 -202 -55 -483 -69 -498 -2 -1 -15 2 -29 7 -19 8 -27 19 -32
53 -5 24 -10 37 -12 31 -9 -24 -22 -13 -33 28 -16 60 -34 44 -41 -37 -3 -45
-6 -55 -7 -28 -1 22 -8 46 -14 52 -8 8 -13 48 -15 100 -1 48 -7 109 -13 135
-5 26 -10 75 -10 108 0 38 -4 58 -10 54 -6 -4 -10 10 -10 34 0 23 -4 41 -10
41 -15 0 -13 80 3 80 7 1 5 6 -5 14 -22 16 -24 46 -3 46 9 0 15 9 15 25 0 14
-4 25 -10 25 -5 0 -10 11 -10 24 0 13 -5 26 -10 28 -8 2 -8 51 0 158 11 152 7
230 -11 230 -5 0 -9 -8 -10 -17 -2 -53 -20 56 -22 135 -1 51 -5 83 -8 70 l-5
-23 -7 25 c-3 13 -3 27 2 30 4 3 11 22 15 43 6 29 2 48 -13 78 -17 33 -21 58
-21 144 0 92 -3 108 -20 125 -24 24 -26 40 -4 40 12 0 14 7 9 33 -4 17 -12 38
-18 45 -14 18 -1 135 24 212 98 305 394 497 812 529 151 12 909 12 1417 1z
m5564 -211 c-6 -10 -118 -35 -214 -48 -41 -6 -86 -13 -100 -15 -72 -13 -173
-26 -235 -31 -38 -3 -104 -10 -145 -15 -444 -59 -836 -95 -855 -79 -5 5 -18 9
-29 9 -101 0 246 55 719 114 366 46 733 86 774 84 23 -1 44 1 47 5 8 8 44 -15
38 -24z m1969 -185 c96 -33 173 -132 184 -237 23 -222 -227 -377 -423 -262
-125 73 -170 230 -104 362 63 127 206 184 343 137z m-7131 -307 c94 -16 122
-38 144 -116 20 -68 15 -207 -11 -269 -25 -61 -52 -72 -182 -72 -59 -1 -128
-5 -152 -9 -67 -13 -121 -57 -156 -126 -28 -57 -30 -68 -34 -203 -2 -78 0
-167 4 -197 l6 -54 219 2 219 2 28 -28 c28 -27 28 -30 27 -145 0 -124 -16
-202 -57 -275 -35 -63 -45 -66 -256 -73 l-191 -7 0 -642 c0 -627 0 -642 -20
-660 -42 -38 -420 -46 -519 -11 -81 29 -75 -33 -67 671 l8 630 -205 0 c-158 0
-208 3 -220 14 -15 12 -17 42 -17 257 l0 244 26 10 c14 6 114 11 222 11 110 1
174 5 145 8 -49 6 -85 21 -51 21 18 0 28 20 28 56 0 13 5 24 11 24 9 0 10 46
7 168 -4 119 -2 179 7 209 7 23 11 44 8 47 -3 3 0 26 6 53 6 26 13 61 16 76 4
20 10 27 20 23 8 -3 17 0 21 6 4 6 3 8 -3 5 -6 -4 -14 0 -17 9 -4 10 -2 13 6
8 7 -5 9 0 6 14 -4 12 -2 20 3 16 5 -3 9 3 10 13 0 16 1 16 9 -2 8 -18 9 -18
10 5 1 31 19 54 45 59 18 3 19 2 4 -15 -8 -11 -20 -32 -27 -49 -9 -24 -9 -26
1 -11 96 146 126 180 206 230 59 36 167 73 254 87 71 11 365 2 459 -14z m1125
-72 c230 -77 968 -301 1078 -328 33 -8 122 -18 198 -21 75 -3 168 -11 205 -17
60 -10 73 -9 123 10 78 30 167 89 213 142 l37 44 -4 -64 c-7 -110 24 -429 114
-1151 56 -455 100 -766 124 -885 34 -164 125 -308 258 -407 78 -57 79 -59 46
-58 -50 2 -254 -21 -358 -40 -61 -11 -348 -13 -354 -2 -3 4 14 28 39 52 43 42
55 72 14 35 -11 -10 -23 -15 -27 -12 -3 4 -12 2 -20 -5 -17 -14 -162 -34 -268
-37 -44 -2 -109 -4 -145 -6 -36 -1 -231 -6 -435 -10 -797 -14 -951 -20 -1044
-41 -35 -8 -73 -12 -84 -8 -13 4 -17 2 -13 -5 5 -8 -1 -8 -21 0 -132 50 -261
206 -294 356 -27 125 -26 1565 1 1683 47 205 215 372 414 412 l68 14 -2 189
c0 103 -3 192 -6 197 -8 12 -5 12 143 -37z m4128 24 c221 -54 415 -230 478
-434 43 -136 163 -1075 151 -1175 -30 -252 -211 -472 -455 -553 -44 -15 -430
-74 -736 -113 -79 -10 -143 -22 -143 -27 0 -5 9 -6 20 -2 26 8 48 -4 29 -16
-8 -5 -23 -9 -34 -9 -11 0 -31 -9 -45 -20 -16 -12 -42 -20 -70 -21 -38 -1 -41
-2 -20 -9 24 -8 24 -8 3 -9 -13 -1 -23 -5 -23 -10 0 -5 -10 -13 -22 -16 -13
-4 -32 -16 -44 -26 -12 -12 -43 -22 -73 -26 -61 -7 -281 16 -281 29 0 5 -6 8
-12 6 -14 -3 -92 18 -120 33 -10 5 -25 9 -35 9 -24 0 -101 39 -116 59 -6 9
-34 24 -61 32 -34 11 -53 24 -65 45 -9 16 -21 32 -28 37 -27 17 -75 72 -99
112 -23 39 -37 73 -78 180 -6 17 -19 42 -28 57 -9 14 -22 49 -28 79 -6 30 -16
77 -23 104 -7 28 -12 111 -11 188 1 114 4 140 18 156 9 10 16 22 14 27 -4 17
14 55 38 79 13 13 24 29 24 35 0 5 7 10 15 10 8 0 15 6 15 14 0 7 11 21 24 32
14 10 23 21 21 25 -3 4 4 9 15 12 12 3 20 -1 23 -12 3 -11 5 -9 6 7 1 24 16
30 25 10 3 -7 4 -1 1 15 -3 15 -1 27 4 27 5 0 13 -20 17 -45 3 -25 8 -44 11
-42 2 3 -6 93 -18 201 -18 166 -19 210 -10 273 35 237 205 446 424 523 67 24
261 56 632 106 494 65 559 70 670 43z m-6077 -104 c-20 -19 -40 -44 -43 -56
-5 -15 -10 -17 -19 -10 -7 6 -16 8 -19 5 -4 -4 -1 5 6 19 7 16 13 21 15 13 2
-10 10 -7 28 11 13 13 22 28 19 34 -3 5 0 6 8 3 8 -3 18 -1 22 5 3 6 9 11 13
11 4 0 -10 -16 -30 -35z m7737 -265 c292 -52 278 -48 271 -75 -6 -23 -202
-1053 -254 -1332 -24 -130 -28 -143 -47 -143 -12 0 -119 20 -238 44 l-217 43
0 -23 c0 -15 -6 -24 -16 -24 -8 0 -12 -4 -9 -10 3 -5 2 -10 -3 -10 -5 0 -12
14 -14 30 -3 17 -1 30 4 30 5 0 6 5 2 12 -8 12 -8 12 -23 163 -13 132 -37 333
-57 470 -8 61 -17 142 -20 180 -3 39 -9 102 -14 140 -5 39 -11 117 -15 175 -5
103 -5 104 10 65 9 -22 16 -55 17 -72 1 -18 5 -33 10 -33 5 0 7 -8 3 -19 -3
-10 -1 -31 5 -45 16 -44 105 -777 112 -928 2 -32 5 -58 8 -58 3 0 22 91 43
203 20 111 82 438 137 727 55 289 100 526 100 527 0 0 8 -1 18 -3 9 -2 94 -17
187 -34z m802 -148 c111 -21 205 -41 209 -45 4 -3 -1 -44 -10 -89 -9 -46 -16
-86 -16 -91 0 -4 23 11 52 33 100 80 191 110 329 111 162 0 346 -66 442 -159
56 -54 112 -162 127 -241 13 -68 13 -235 0 -326 -18 -122 -172 -930 -180 -938
-6 -7 -467 76 -477 87 -2 2 30 185 73 407 101 536 105 612 32 695 -41 46 -72
61 -155 75 -102 17 -165 -3 -227 -71 -73 -82 -75 -90 -206 -777 -33 -176 -45
-223 -58 -223 -29 0 -447 83 -455 90 -7 6 239 1349 270 1478 7 29 8 29 250
-16z m-10399 -662 c3 -453 16 -836 32 -936 20 -124 82 -249 177 -354 46 -51
138 -119 253 -189 l35 -21 -35 0 c-115 -1 -391 -31 -575 -62 -155 -26 -274
-41 -420 -53 -44 -4 -85 -11 -92 -17 -7 -5 -58 -11 -115 -13 -57 -2 -114 -6
-128 -9 -14 -3 -76 -2 -138 2 -62 4 -119 4 -127 -1 -8 -4 -24 -3 -35 3 -11 6
-20 7 -20 2 0 -14 -312 -22 -329 -9 -8 7 -69 13 -158 14 -79 1 -148 5 -154 9
-6 3 -74 7 -152 9 -155 3 -197 10 -197 31 0 16 -21 19 -36 4 -6 -6 -25 1 -54
21 -40 27 -51 30 -98 25 -44 -4 -54 -2 -62 15 -11 20 -40 27 -40 9 0 -14 -38
-12 -42 2 -3 9 -25 12 -69 10 -35 -2 -75 1 -89 7 l-25 10 25 1 c21 1 19 4 -15
16 -27 11 -58 14 -97 10 -35 -3 -58 -2 -58 4 0 6 12 10 28 11 22 1 20 3 -12
10 -49 12 -52 15 -36 34 8 10 9 15 1 15 -6 0 -11 -4 -11 -10 0 -5 -18 -10 -40
-10 -22 0 -40 3 -40 8 0 12 -52 32 -83 32 -16 0 -35 7 -44 16 -9 8 -22 13 -30
10 -8 -4 -28 3 -44 15 -27 19 -30 19 -45 4 -15 -14 -19 -12 -54 23 -20 22 -51
48 -69 58 -17 10 -31 22 -31 26 0 4 -9 8 -20 8 -16 0 -20 7 -20 36 0 39 -28
74 -59 74 -9 0 -22 4 -30 9 -13 8 -13 12 -1 26 7 9 22 14 32 12 14 -4 18 1 18
19 0 21 4 24 40 24 33 0 40 -3 40 -19 0 -11 -6 -21 -12 -24 -8 -2 -9 -8 -4
-13 5 -5 11 -4 13 4 3 6 17 12 33 12 16 0 31 -6 34 -12 5 -10 7 -10 12 0 3 6
23 12 45 12 41 0 54 18 19 27 -26 7 -26 19 0 26 15 4 20 14 20 40 0 27 5 37
20 42 11 3 20 11 20 17 0 6 12 8 30 5 33 -7 48 7 30 28 -17 21 3 20 35 -1 24
-16 25 -15 25 4 0 12 9 23 20 27 11 3 20 15 20 25 0 10 9 22 20 25 11 3 20 11
20 16 0 6 9 7 20 4 27 -9 60 3 60 21 0 8 10 14 23 14 13 0 26 9 32 22 9 19 17
22 57 20 48 -4 128 15 128 30 0 4 23 8 50 8 43 0 50 3 50 20 0 11 -4 20 -10
20 -5 0 -10 9 -10 20 0 11 5 20 10 20 6 0 10 -9 10 -20 0 -25 44 -28 66 -5 9
8 29 15 45 15 16 0 29 4 29 10 0 5 17 12 38 16 20 4 45 11 54 16 10 5 35 10
55 12 64 6 93 17 93 35 0 9 13 25 30 34 16 10 37 25 46 35 12 11 33 16 70 16
46 -1 54 1 54 17 0 12 -7 19 -20 19 -11 0 -20 7 -20 15 0 8 -9 15 -20 15 -11
0 -20 5 -20 10 0 16 33 26 38 12 2 -7 12 -12 23 -12 12 0 19 -7 19 -20 0 -13
7 -20 20 -20 12 0 20 7 20 18 0 9 -9 23 -20 30 -26 16 -26 38 0 45 11 3 20 1
20 -4 0 -5 18 -9 40 -9 33 0 40 3 40 20 0 17 7 20 40 20 37 0 40 -2 40 -29 0
-24 3 -28 20 -24 26 7 26 29 0 45 -11 7 -20 18 -20 25 0 13 59 33 98 33 13 0
22 6 22 15 0 8 9 15 19 15 11 0 22 4 25 8 3 5 44 17 91 27 48 10 93 24 100 31
16 16 45 18 45 4 0 -7 6 -7 19 0 11 5 30 10 42 10 18 0 19 2 9 15 -15 18 -4
24 60 28 25 1 51 6 58 11 7 4 19 3 27 -4 12 -10 15 -9 15 8 0 23 46 57 75 54
36 -2 95 18 95 33 0 11 12 15 40 15 22 0 40 3 40 8 0 4 18 18 40 32 22 14 40
32 40 42 0 14 6 16 35 11 27 -4 44 0 75 21 46 30 50 31 50 11 0 -17 18 -19 39
-6 11 7 7 12 -15 25 -18 9 -23 15 -13 16 9 0 30 7 45 15 36 19 51 19 61 1 4
-7 22 -16 38 -18 17 -3 24 -3 18 -1 -7 3 -13 20 -13 39 0 33 1 34 40 34 35 0
40 -3 40 -22 0 -27 18 -12 23 19 4 26 25 53 42 53 8 0 16 6 18 13 3 6 6 0 6
-15 1 -40 31 -38 31 2 0 39 29 42 31 3 l2 -28 4 28 c4 23 9 27 38 27 18 0 40
3 49 6 11 4 16 0 16 -12 1 -18 1 -18 14 -1 7 9 20 17 28 17 22 0 40 24 32 44
-3 9 -1 16 5 16 6 0 11 -12 11 -26 0 -15 4 -23 11 -19 6 4 8 14 5 22 -3 8 -3
20 1 26 15 23 19 -62 21 -453z m12229 238 c-3 -7 -5 -2 -5 12 0 14 2 19 5 13
2 -7 2 -19 0 -25z m43 -22 c0 -19 5 -26 20 -26 11 0 20 7 20 16 0 8 5 12 10 9
6 -3 10 -14 10 -23 0 -16 40 -42 65 -42 6 0 19 -13 28 -30 21 -36 32 -38 48
-9 7 14 14 18 18 11 8 -13 90 -44 100 -38 4 3 13 1 21 -5 13 -7 12 -9 -2 -9
-10 0 -18 -4 -18 -9 0 -13 34 -23 68 -20 15 1 38 -1 52 -5 14 -3 43 -12 65
-18 41 -12 69 -28 47 -28 -7 0 -12 -4 -12 -8 0 -10 137 -52 169 -52 11 0 23
-4 26 -10 3 -5 15 -10 26 -10 10 0 19 -4 19 -8 0 -10 137 -52 169 -52 11 0 22
-4 25 -9 3 -4 33 -14 66 -22 33 -7 60 -17 60 -21 0 -4 20 -8 44 -8 34 0 48 -5
60 -21 12 -18 21 -20 47 -15 19 4 38 1 47 -6 15 -13 47 -26 145 -60 32 -11 57
-26 57 -33 0 -8 15 -17 38 -20 75 -12 122 -28 122 -41 0 -10 13 -14 40 -14 33
0 40 -3 40 -19 0 -11 9 -23 20 -26 11 -3 20 -11 20 -16 0 -14 38 -11 43 4 3
10 9 10 26 0 11 -7 28 -13 36 -13 8 0 15 -7 15 -15 0 -11 11 -15 40 -15 38 0
52 -12 30 -25 -15 -10 -12 -42 5 -49 9 -3 18 1 21 9 9 23 44 19 44 -5 0 -11 5
-20 10 -20 6 0 10 16 10 37 0 35 0 36 20 18 11 -10 28 -15 40 -12 16 4 20 0
20 -19 0 -21 4 -24 41 -24 48 0 119 -19 119 -32 0 -4 -11 -8 -24 -8 -13 0 -26
-7 -30 -15 -3 -8 -10 -15 -16 -15 -5 0 -10 7 -10 15 0 8 -9 15 -20 15 -11 0
-20 -4 -20 -10 0 -5 4 -10 10 -10 5 0 23 -13 40 -30 17 -17 40 -30 50 -30 24
0 25 9 3 25 -18 13 -10 35 14 35 8 0 27 -8 41 -19 36 -25 79 -32 93 -15 15 18
29 18 29 -1 0 -11 11 -15 43 -15 29 0 38 -3 28 -9 -23 -15 5 -41 45 -41 36 0
84 -18 84 -32 0 -4 9 -8 20 -8 11 0 20 -3 20 -8 0 -4 18 -18 40 -32 22 -14 40
-28 40 -32 0 -15 77 -8 90 7 7 8 19 15 26 15 8 0 14 -7 14 -15 0 -8 7 -15 15
-15 8 0 15 -9 15 -20 0 -13 -7 -20 -20 -20 -13 0 -20 -7 -20 -19 0 -11 9 -23
20 -26 11 -3 20 -13 20 -22 0 -13 3 -13 15 -3 18 15 40 1 50 -31 4 -10 13 -19
21 -19 17 0 19 -16 2 -23 -7 -3 6 -6 30 -6 53 -1 56 -21 2 -21 -39 0 -40 -1
-40 -35 0 -34 -1 -35 -40 -35 -33 0 -40 -3 -40 -20 0 -18 7 -20 83 -21 76 -1
78 -2 32 -9 -27 -4 -65 -10 -82 -14 -21 -5 -33 -4 -33 3 0 7 -37 9 -120 4 -88
-4 -120 -3 -120 5 0 20 -17 13 -23 -8 -3 -11 -10 -20 -17 -20 -7 0 -14 9 -17
20 -6 24 -23 27 -23 4 0 -15 -12 -16 -107 -10 -60 4 -153 6 -208 5 -55 -2
-116 -2 -135 -2 -182 4 -362 1 -440 -8 -52 -5 -151 -14 -220 -20 -190 -14
-207 -16 -221 -24 -6 -4 -55 -9 -108 -11 -101 -3 -202 -11 -236 -19 -49 -11
-285 -35 -342 -35 -35 0 -63 -4 -63 -10 0 -6 -47 -10 -120 -10 -72 0 -120 -4
-120 -10 0 -5 -8 -9 -17 -8 -40 3 -55 -2 -50 -17 4 -8 2 -17 -3 -20 -6 -4 -10
-1 -10 4 0 13 -72 15 -85 2 -15 -14 -647 -23 -639 -9 4 7 3 8 -4 4 -7 -4 -21
-9 -33 -11 -15 -3 -8 10 31 52 143 156 169 226 274 718 51 245 176 865 176
879 0 3 9 6 21 6 18 0 20 4 15 26 -6 24 -5 25 9 11 8 -9 15 -27 15 -41z m170
-46 c8 -5 11 -12 8 -16 -4 -3 -14 1 -23 10 -18 17 -9 21 15 6z m-11201 -176
c1 -69 -2 -149 -6 -177 l-7 -52 -8 40 c-19 88 -26 220 -15 255 10 29 26 58 34
60 0 0 2 -57 2 -126z m-1089 15 c0 -14 -30 -38 -47 -39 -7 0 -13 5 -13 10 0 6
7 10 15 10 9 0 18 7 21 15 7 18 24 20 24 4z m-2230 -369 c13 -9 13 -11 0 -20
-8 -5 -18 -10 -22 -10 -11 0 -20 19 -13 30 8 12 16 12 35 0z m16764 -321 c-8
-14 -34 -10 -34 5 0 9 7 12 20 9 11 -3 17 -9 14 -14z m203 -45 c-3 -3 -12 -4
-19 -1 -8 3 -5 6 6 6 11 1 17 -2 13 -5z m347 -220 c23 -9 20 -24 -4 -24 -11 0
-20 7 -20 15 0 17 2 18 24 9z m-18674 -68 c0 -11 -19 -15 -25 -6 -3 5 1 10 9
10 9 0 16 -2 16 -4z m18795 -22 c-9 -9 -18 -14 -21 -11 -9 9 6 27 22 27 13 0
13 -2 -1 -16z m-18785 -84 c0 -5 -14 -10 -31 -10 -17 0 -28 4 -24 10 3 6 17
10 31 10 13 0 24 -4 24 -10z m10767 -6 c-3 -3 -12 -4 -19 -1 -8 3 -5 6 6 6 11
1 17 -2 13 -5z m1893 -89 c118 -29 364 -84 545 -122 l330 -68 -540 -6 c-468
-6 -730 -17 -785 -34 -8 -3 -29 -7 -45 -9 -37 -5 -127 -35 -139 -47 -6 -5 -19
-9 -29 -9 -11 0 -36 -10 -56 -22 -20 -13 -37 -22 -39 -20 -1 1 -15 -4 -31 -13
-50 -25 -125 -28 -567 -19 -417 8 -426 8 -314 20 280 30 788 92 888 109 228
40 336 95 463 234 49 55 69 70 84 65 11 -3 117 -29 235 -59z m-12670 -5 c0 -5
-2 -10 -4 -10 -3 0 -8 5 -11 10 -3 6 -1 10 4 10 6 0 11 -4 11 -10z m18923 3
c-7 -2 -19 -2 -25 0 -7 3 -2 5 12 5 14 0 19 -2 13 -5z m-18370 -240 c-13 -2
-33 -2 -45 0 -13 2 -3 4 22 4 25 0 35 -2 23 -4z m11774 -509 c-3 -3 -12 -4
-19 -1 -8 3 -5 6 6 6 11 1 17 -2 13 -5z m-8720 -50 c-3 -3 -12 -4 -19 -1 -8 3
-5 6 6 6 11 1 17 -2 13 -5z m151 -14 c8 -14 23 -20 47 -20 46 0 85 -19 85 -42
0 -15 -8 -18 -60 -18 -33 0 -60 -4 -60 -10 0 -6 -33 -10 -80 -10 -47 0 -80 -4
-80 -10 0 -6 33 -10 80 -10 47 0 80 -4 80 -10 0 -5 19 -11 43 -12 l42 -1 -42
-4 c-29 -3 -43 -9 -43 -19 0 -10 14 -14 58 -14 53 -1 56 -2 37 -16 -15 -12
-32 -14 -70 -9 -27 3 -62 6 -77 6 -16 0 -28 4 -28 8 0 5 -17 12 -37 16 -21 4
-44 11 -50 17 -7 6 -26 8 -43 6 -16 -3 -30 -1 -30 4 0 4 9 8 20 8 17 0 20 7
20 41 0 32 -4 42 -20 46 -17 5 -18 7 -4 20 13 13 22 14 53 4 43 -12 171 -12
171 1 0 4 -18 8 -40 8 -38 0 -39 1 -28 20 7 11 20 20 28 20 8 0 21 -9 28 -20z
m11477 -121 c11 -16 1 -19 -13 -3 -7 8 -8 14 -3 14 5 0 13 -5 16 -11z m-6710
-1069 c-3 -5 -13 -10 -21 -10 -8 0 -14 5 -14 10 0 6 9 10 21 10 11 0 17 -4 14
-10z m268 3 c-13 -2 -33 -2 -45 0 -13 2 -3 4 22 4 25 0 35 -2 23 -4z m-1433
-13 c11 -7 4 -10 -27 -10 -24 0 -43 5 -43 10 0 13 50 13 70 0z m1510 -6 c11
-12 11 -18 -2 -31 -20 -19 -58 -9 -58 17 0 30 40 40 60 14z m-300 -10 c0 -8
-4 -12 -10 -9 -5 3 -10 10 -10 16 0 5 5 9 10 9 6 0 10 -7 10 -16z m440 -4 c0
-13 7 -20 20 -20 11 0 20 -4 20 -10 0 -5 -9 -10 -20 -10 -11 0 -20 5 -20 10 0
6 -9 10 -20 10 -13 0 -20 7 -20 20 0 13 7 20 20 20 13 0 20 -7 20 -20z m-1657
-87 c-13 -2 -33 -2 -45 0 -13 2 -3 4 22 4 25 0 35 -2 23 -4z m255 -15 c4 -22
-24 -24 -44 -3 -9 8 -20 15 -25 15 -5 0 -9 -7 -9 -15 0 -11 -11 -15 -40 -15
-34 0 -40 3 -40 20 0 19 5 21 77 18 65 -3 78 -6 81 -20z m715 -15 c-7 -2 -19
-2 -25 0 -7 3 -2 5 12 5 14 0 19 -2 13 -5z m-1153 -13 c0 -5 -9 -10 -20 -10
-11 0 -20 5 -20 10 0 6 9 10 20 10 11 0 20 -4 20 -10z m5148 3 c-10 -2 -28 -2
-40 0 -13 2 -5 4 17 4 22 1 32 -1 23 -4z m-4228 -48 c0 -11 -11 -15 -40 -15
-29 0 -40 4 -40 15 0 11 11 15 40 15 29 0 40 -4 40 -15z m-860 -15 c0 -5 -4
-10 -10 -10 -5 0 -10 5 -10 10 0 6 5 10 10 10 6 0 10 -4 10 -10z m735 -2 c27
-12 32 -23 14 -33 -6 -4 -19 2 -30 14 -30 32 -26 38 16 19z m4845 -24 c0 -8
-4 -12 -10 -9 -5 3 -10 10 -10 16 0 5 5 9 10 9 6 0 10 -7 10 -16z m1865 -54
c3 -5 -1 -10 -9 -10 -9 0 -16 5 -16 10 0 6 4 10 9 10 6 0 13 -4 16 -10z
m-7665 -19 c0 -5 -7 -12 -16 -15 -22 -9 -24 -8 -24 9 0 8 9 15 20 15 11 0 20
-4 20 -9z m7400 -6 c0 -17 -2 -18 -24 -9 -23 9 -20 24 4 24 11 0 20 -7 20 -15z
m340 -14 c0 -6 -4 -13 -10 -16 -5 -3 -10 1 -10 9 0 9 5 16 10 16 6 0 10 -4 10
-9z m-9040 -61 c0 -5 -5 -10 -11 -10 -7 0 -10 -13 -7 -33 3 -31 2 -32 -29 -29
-18 2 -33 6 -33 8 0 8 65 73 73 73 4 1 7 -3 7 -9z m3915 -30 c3 -5 1 -10 -4
-10 -6 0 -11 5 -11 10 0 6 2 10 4 10 3 0 8 -4 11 -10z m3800 -30 c3 -5 -3 -10
-15 -10 -12 0 -18 5 -15 10 3 6 10 10 15 10 5 0 12 -4 15 -10z m-8135 -20 c0
-5 -4 -10 -10 -10 -5 0 -10 5 -10 10 0 6 5 10 10 10 6 0 10 -4 10 -10z m8180
1 c0 -6 -4 -13 -10 -16 -5 -3 -10 1 -10 9 0 9 5 16 10 16 6 0 10 -4 10 -9z
m-8114 -45 c19 -20 18 -26 -6 -26 -13 0 -20 7 -20 20 0 24 6 25 26 6z m254 -6
c0 -17 -7 -20 -40 -20 -33 0 -40 3 -40 20 0 17 7 20 40 20 33 0 40 -3 40 -20z
m4224 -96 c17 -7 22 -34 7 -34 -10 0 -41 28 -41 36 0 6 16 5 34 -2z m-4 -88
c0 -11 -19 -15 -25 -6 -3 5 1 10 9 10 9 0 16 -2 16 -4z m520 -185 c0 -6 -4
-13 -10 -16 -5 -3 -10 1 -10 9 0 9 5 16 10 16 6 0 10 -4 10 -9z m1480 -66 c0
-8 -4 -15 -10 -15 -5 0 -10 7 -10 15 0 8 5 15 10 15 6 0 10 -7 10 -15z"/>
<path d="M12120 7450 c-14 -4 -20 -9 -15 -10 6 -1 20 -3 33 -6 15 -3 22 1 22
11 0 16 -3 17 -40 5z"/>
<path d="M11914 7285 c-12 -8 -27 -28 -34 -44 -7 -17 -16 -28 -21 -25 -5 3 -6
-3 -2 -12 5 -13 10 -8 26 22 10 22 29 47 41 56 26 21 18 24 -10 3z"/>
<path d="M11853 7130 c0 -25 2 -35 4 -22 2 12 2 32 0 45 -2 12 -4 2 -4 -23z"/>
<path d="M11400 7079 c0 -5 5 -7 10 -4 6 3 10 8 10 11 0 2 -4 4 -10 4 -5 0
-10 -5 -10 -11z"/>
<path d="M11650 7080 c-8 -5 -10 -10 -5 -10 6 0 17 5 25 10 8 5 11 10 5 10 -5
0 -17 -5 -25 -10z"/>
<path d="M11676 7036 c4 -10 16 -16 33 -15 20 1 22 2 6 6 -11 3 -26 10 -33 15
-9 8 -11 7 -6 -6z"/>
<path d="M3541 5424 c0 -11 3 -14 6 -6 3 7 2 16 -1 19 -3 4 -6 -2 -5 -13z"/>
<path d="M3643 4730 c0 -25 2 -35 4 -22 2 12 2 32 0 45 -2 12 -4 2 -4 -23z"/>
<path d="M3760 3666 c0 -9 5 -16 10 -16 6 0 10 4 10 9 0 6 -4 13 -10 16 -5 3
-10 -1 -10 -9z"/>
<path d="M5211 4974 c0 -11 3 -14 6 -6 3 7 2 16 -1 19 -3 4 -6 -2 -5 -13z"/>
<path d="M5202 4910 c0 -14 2 -19 5 -12 2 6 2 18 0 25 -3 6 -5 1 -5 -13z"/>
<path d="M5194 4625 c0 -104 2 -146 3 -92 2 54 2 139 0 190 -1 51 -3 7 -3 -98z"/>
<path d="M7475 4369 c-192 -13 -263 -26 -315 -57 -100 -62 -127 -160 -137
-492 -6 -226 6 -432 32 -529 30 -113 97 -171 219 -191 128 -20 585 -30 897
-20 387 13 484 25 556 66 83 48 113 117 132 302 22 208 9 570 -25 707 -31 127
-106 185 -264 205 -109 14 -925 21 -1095 9z m546 -491 c137 -73 247 -137 246
-142 -3 -8 -453 -251 -504 -273 -10 -4 -13 54 -13 271 0 198 3 276 11 276 6 0
123 -60 260 -132z"/>
<path d="M11225 5173 c-68 -6 -500 -62 -690 -89 -300 -42 -342 -56 -436 -142
-114 -105 -157 -228 -139 -394 13 -122 50 -380 55 -393 3 -5 4 8 3 30 -2 81 2
111 12 95 6 -9 10 -11 10 -3 0 7 6 10 13 8 8 -4 13 7 14 31 2 48 28 99 59 121
14 10 33 26 42 36 9 9 25 17 35 17 9 0 20 7 23 15 4 8 10 13 14 10 4 -3 22 0
40 7 29 9 35 9 47 -7 10 -15 13 -16 13 -4 0 10 10 15 29 15 27 0 28 -2 20 -23
-16 -41 -10 -40 20 6 17 25 27 49 24 55 -3 6 -3 8 2 4 4 -4 36 19 71 51 67 63
156 113 244 136 72 19 211 19 284 0 195 -51 353 -209 411 -409 26 -90 17 -259
-18 -345 -52 -124 -126 -214 -237 -287 -33 -22 -45 -33 -30 -29 24 6 24 5 6
-9 -20 -16 -20 -16 0 -16 13 0 15 -3 6 -8 -23 -15 0 -48 31 -43 4 0 8 -9 9
-22 2 -36 3 -41 11 -53 11 -18 4 -64 -9 -64 -7 0 -11 -8 -10 -17 0 -9 -10 -23
-24 -30 l-25 -13 34 0 c18 0 99 9 180 21 120 16 159 26 217 54 88 43 163 120
206 212 46 97 47 172 8 468 -46 355 -88 640 -101 688 -54 204 -256 341 -474
320z m231 -142 c35 -21 64 -75 64 -119 0 -70 -87 -140 -157 -127 -48 9 -99 60
-108 109 -21 112 103 197 201 137z"/>
<path d="M10833 4569 c-67 -11 -126 -40 -182 -88 -32 -28 -41 -40 -31 -46 8
-5 11 -4 7 2 -6 10 13 23 31 23 4 0 8 -14 8 -31 1 -34 23 -56 36 -36 4 7 8 7
8 2 0 -6 15 -12 33 -13 17 -1 47 -7 64 -13 18 -6 37 -8 43 -4 5 3 10 1 10 -4
0 -6 9 -11 19 -11 29 0 138 -66 176 -107 18 -19 41 -52 51 -74 11 -21 22 -39
26 -39 11 0 48 -77 41 -84 -4 -3 1 -6 10 -6 21 0 21 -1 -4 -47 l-21 -38 31 35
c96 107 96 307 1 439 -76 105 -222 162 -357 140z"/>
<path d="M11129 3933 c-13 -16 -12 -17 4 -4 16 13 21 21 13 21 -2 0 -10 -8
-17 -17z"/>
<path d="M11128 3403 c7 -3 16 -2 19 1 4 3 -2 6 -13 5 -11 0 -14 -3 -6 -6z"/>
<path d="M10673 3093 c9 -2 25 -2 35 0 9 3 1 5 -18 5 -19 0 -27 -2 -17 -5z"/>
<path d="M10568 3083 c7 -3 16 -2 19 1 4 3 -2 6 -13 5 -11 0 -14 -3 -6 -6z"/>
<path d="M3195 4520 c3 -5 8 -10 11 -10 2 0 4 5 4 10 0 6 -5 10 -11 10 -5 0
-7 -4 -4 -10z"/>
<path d="M1880 3995 c0 -18 5 -25 20 -25 15 0 20 7 20 25 0 18 -5 25 -20 25
-15 0 -20 -7 -20 -25z"/>
<path d="M1650 3886 c0 -2 7 -6 15 -10 8 -3 15 -1 15 4 0 6 -7 10 -15 10 -8 0
-15 -2 -15 -4z"/>
<path d="M160 3100 c0 -5 5 -10 10 -10 6 0 10 5 10 10 0 6 -4 10 -10 10 -5 0
-10 -4 -10 -10z"/>
<path d="M908 2733 c7 -3 16 -2 19 1 4 3 -2 6 -13 5 -11 0 -14 -3 -6 -6z"/>
<path d="M15731 4354 c0 -11 3 -14 6 -6 3 7 2 16 -1 19 -3 4 -6 -2 -5 -13z"/>
<path d="M17600 3706 c0 -22 -5 -25 -42 -29 l-43 -4 43 -1 c23 -1 42 -6 42
-12 0 -5 9 -10 20 -10 17 0 20 7 20 40 0 33 -3 40 -20 40 -15 0 -20 -7 -20
-24z"/>
<path d="M17680 3666 c0 -9 5 -16 10 -16 6 0 10 4 10 9 0 6 -4 13 -10 16 -5 3
-10 -1 -10 -9z"/>
<path d="M18200 3481 c0 -12 37 -24 50 -16 20 12 10 25 -20 25 -16 0 -30 -4
-30 -9z"/>
<path d="M18320 3403 c0 -8 65 -53 75 -53 3 0 5 14 5 30 0 28 -2 30 -40 30
-22 0 -40 -3 -40 -7z"/>
<path d="M18640 3310 c0 -13 7 -20 20 -20 13 0 20 7 20 20 0 13 -7 20 -20 20
-13 0 -20 -7 -20 -20z"/>
<path d="M18640 3210 c0 -5 5 -10 10 -10 6 0 10 5 10 10 0 6 -4 10 -10 10 -5
0 -10 -4 -10 -10z"/>
<path d="M18705 3170 c3 -5 8 -10 11 -10 2 0 4 5 4 10 0 6 -5 10 -11 10 -5 0
-7 -4 -4 -10z"/>
<path d="M3640 2140 c0 -5 6 -10 14 -10 8 0 18 5 21 10 3 6 -3 10 -14 10 -12
0 -21 -4 -21 -10z"/>
<path d="M3685 2120 c-4 -6 23 -10 74 -10 47 0 81 4 81 10 0 6 -31 10 -74 10
-41 0 -78 -4 -81 -10z"/>
<path d="M3710 2040 c20 -13 50 -13 50 0 0 6 -15 10 -32 10 -25 0 -29 -3 -18
-10z"/>
<path d="M12818 2363 c6 -2 18 -2 25 0 6 3 1 5 -13 5 -14 0 -19 -2 -12 -5z"/>
<path d="M6448 1333 c7 -3 16 -2 19 1 4 3 -2 6 -13 5 -11 0 -14 -3 -6 -6z"/>
<path d="M8740 1180 c0 -5 5 -10 10 -10 6 0 10 5 10 10 0 6 -4 10 -10 10 -5 0
-10 -4 -10 -10z"/>
<path d="M8600 1150 c0 -13 7 -20 20 -20 13 0 20 7 20 20 0 13 -7 20 -20 20
-13 0 -20 -7 -20 -20z"/>
<path d="M7520 1140 c0 -5 18 -10 40 -10 22 0 40 5 40 10 0 6 -18 10 -40 10
-22 0 -40 -4 -40 -10z"/>
<path d="M6601 1124 c0 -11 3 -14 6 -6 3 7 2 16 -1 19 -3 4 -6 -2 -5 -13z"/>
<path d="M8400 1109 c0 -11 5 -17 10 -14 6 3 10 13 10 21 0 8 -4 14 -10 14 -5
0 -10 -9 -10 -21z"/>
<path d="M8800 1110 c0 -11 4 -20 9 -20 5 0 11 9 14 20 3 13 0 20 -9 20 -8 0
-14 -9 -14 -20z"/>
<path d="M9328 1093 c6 -2 18 -2 25 0 6 3 1 5 -13 5 -14 0 -19 -2 -12 -5z"/>
<path d="M8220 1070 c0 -11 5 -20 10 -20 6 0 10 9 10 20 0 11 -4 20 -10 20 -5
0 -10 -9 -10 -20z"/>
<path d="M8295 1060 c-3 -5 1 -10 9 -10 9 0 16 5 16 10 0 6 -4 10 -9 10 -6 0
-13 -4 -16 -10z"/>
<path d="M8498 1063 c12 -2 32 -2 45 0 12 2 2 4 -23 4 -25 0 -35 -2 -22 -4z"/>
<path d="M8400 1046 c0 -9 5 -16 10 -16 6 0 10 4 10 9 0 6 -4 13 -10 16 -5 3
-10 -1 -10 -9z"/>
<path d="M9320 1030 c0 -13 7 -20 20 -20 11 0 20 3 20 8 0 4 -9 13 -20 20 -18
11 -20 10 -20 -8z"/>
<path d="M7625 1020 c-3 -5 1 -10 10 -10 9 0 13 5 10 10 -3 6 -8 10 -10 10 -2
0 -7 -4 -10 -10z"/>
<path d="M9425 1010 c-16 -7 -17 -9 -3 -9 9 -1 20 4 23 9 7 11 7 11 -20 0z"/>
<path d="M7644 977 c-3 -9 -3 -25 1 -34 6 -16 8 -16 18 5 7 16 7 26 -1 34 -8
8 -13 7 -18 -5z"/>
<path d="M7840 881 c0 -36 5 -39 19 -12 8 14 7 22 -4 31 -13 11 -15 8 -15 -19z"/>
<path d="M8098 903 c12 -2 32 -2 45 0 12 2 2 4 -23 4 -25 0 -35 -2 -22 -4z"/>
<path d="M5806 865 c-3 -8 -1 -15 3 -15 5 0 11 7 15 15 3 8 1 15 -3 15 -5 0
-11 -7 -15 -15z"/>
<path d="M14110 865 c0 -10 10 -15 26 -15 22 0 25 2 14 15 -7 8 -19 15 -26 15
-8 0 -14 -7 -14 -15z"/>
<path d="M14860 860 c0 -5 5 -10 10 -10 6 0 10 5 10 10 0 6 -4 10 -10 10 -5 0
-10 -4 -10 -10z"/>
<path d="M14353 853 c9 -2 25 -2 35 0 9 3 1 5 -18 5 -19 0 -27 -2 -17 -5z"/>
<path d="M14840 810 c-30 -24 -40 -25 -40 -5 0 8 -4 15 -10 15 -5 0 -10 -7
-10 -15 0 -8 5 -15 10 -15 6 0 10 -4 10 -10 0 -5 -7 -10 -16 -10 -8 0 -12 -4
-9 -10 3 -5 15 -10 26 -10 10 0 19 5 19 10 0 6 7 10 16 10 20 0 44 24 44 44 0
21 -10 20 -40 -4z"/>
<path d="M5810 790 c-8 -5 -11 -12 -8 -16 4 -3 14 1 23 10 18 17 9 21 -15 6z"/>
<path d="M13017 793 c-12 -11 -8 -23 8 -23 8 0 15 7 15 15 0 16 -12 20 -23 8z"/>
<path d="M14415 784 c9 -9 19 -13 23 -10 3 4 0 11 -8 16 -24 15 -33 11 -15 -6z"/>
<path d="M14488 773 c7 -3 16 -2 19 1 4 3 -2 6 -13 5 -11 0 -14 -3 -6 -6z"/>
<path d="M5310 705 c0 -10 10 -15 28 -15 26 1 26 1 8 15 -25 19 -36 19 -36 0z"/>
<path d="M13067 714 c-13 -13 -7 -24 14 -24 11 0 19 5 17 12 -5 14 -22 21 -31
12z"/>
<path d="M9680 700 c0 -5 5 -10 10 -10 6 0 10 5 10 10 0 6 -4 10 -10 10 -5 0
-10 -4 -10 -10z"/>
<path d="M13245 700 c-3 -5 3 -10 14 -10 12 0 21 5 21 10 0 6 -6 10 -14 10 -8
0 -18 -4 -21 -10z"/>
<path d="M13128 683 c7 -3 16 -2 19 1 4 3 -2 6 -13 5 -11 0 -14 -3 -6 -6z"/>
<path d="M13600 580 c0 -5 5 -10 10 -10 6 0 10 5 10 10 0 6 -4 10 -10 10 -5 0
-10 -4 -10 -10z"/>
<path d="M10433 318 c-18 -6 -33 -15 -33 -21 0 -5 8 -6 18 -2 9 4 27 10 40 12
12 3 22 9 22 14 0 11 -5 10 -47 -3z"/>
<path d="M10400 266 c0 -9 7 -16 16 -16 9 0 14 5 12 12 -6 18 -28 21 -28 4z"/>
<path d="M11680 241 c0 -17 5 -31 10 -31 6 0 10 11 10 24 0 14 -4 28 -10 31
-6 4 -10 -7 -10 -24z"/>
<path d="M10258 236 c-27 -20 -22 -26 22 -26 22 0 40 3 40 6 0 7 -32 33 -40
33 -3 0 -13 -6 -22 -13z"/>
<path d="M10480 233 c0 -7 -19 -14 -42 -16 -41 -3 -41 -4 10 -5 l52 -2 0 -40
c0 -33 3 -40 20 -40 17 0 20 7 20 40 0 22 5 40 10 40 6 0 10 8 10 18 -1 16 -1
16 -14 0 -7 -10 -19 -18 -26 -18 -7 0 -19 8 -26 18 -7 9 -14 12 -14 5z"/>
<path d="M11360 170 c0 -22 5 -40 10 -40 6 0 10 18 10 40 0 22 -4 40 -10 40
-5 0 -10 -18 -10 -40z"/>
<path d="M11420 171 l0 -39 50 -4 50 -3 0 43 0 42 -50 0 -50 0 0 -39z"/>
<path d="M10560 156 c0 -16 6 -26 14 -26 9 0 12 7 9 20 -8 31 -23 34 -23 6z"/>
<path d="M11893 153 c-20 -8 -15 -23 7 -23 11 0 20 7 20 15 0 15 -6 17 -27 8z"/>
<path d="M10720 133 c0 -11 -17 -29 -40 -43 -43 -27 -51 -40 -22 -40 13 0 18
-7 18 -22 -1 -20 5 -23 42 -26 33 -2 47 1 58 15 9 12 16 14 21 7 5 -6 57 -14
121 -17 l112 -7 0 25 c0 29 17 32 36 8 13 -17 15 -17 28 0 18 24 26 21 26 -8
0 -18 5 -25 20 -25 15 0 20 7 20 25 0 16 6 25 15 25 11 0 15 11 15 38 l0 37
-194 3 c-179 2 -195 1 -199 -15 -4 -17 -5 -17 -6 0 -1 20 -21 22 -40 5 -10
-11 -12 -9 -9 6 1 10 -3 21 -9 23 -8 3 -13 -3 -13 -14z m108 -71 c2 -7 -3 -12
-12 -12 -9 0 -16 7 -16 16 0 17 22 14 28 -4z"/>
<path d="M11573 90 c0 -25 2 -35 4 -22 2 12 2 32 0 45 -2 12 -4 2 -4 -23z"/>
<path d="M11615 111 c-22 -9 -26 -7 45 -27 15 -4 20 -1 20 15 0 22 -26 27 -65
12z"/>
<path d="M11218 53 c12 -2 32 -2 45 0 12 2 2 4 -23 4 -25 0 -35 -2 -22 -4z"/>
</g>
</svg>
