<svg xmlns="http://www.w3.org/2000/svg" xmlns:xlink="http://www.w3.org/1999/xlink" width="500" zoomAndPan="magnify" viewBox="0 0 375 374.999991" height="500" preserveAspectRatio="xMidYMid meet" version="1.0"><defs><g/></defs><g fill="#000000" fill-opacity="1"><g transform="translate(52.326387, 216.749986)"><g><path d="M 52.78125 -74.390625 C 52.78125 -75.554688 52.445312 -76.566406 51.78125 -77.421875 C 51.125 -78.273438 50.289062 -78.992188 49.28125 -79.578125 C 48.269531 -80.171875 47.160156 -80.617188 45.953125 -80.921875 C 44.742188 -81.234375 43.597656 -81.46875 42.515625 -81.625 C 45.316406 -81.394531 48.039062 -80.832031 50.6875 -79.9375 C 53.332031 -79.039062 55.78125 -77.910156 58.03125 -76.546875 C 60.289062 -75.179688 62.296875 -73.644531 64.046875 -71.9375 C 65.804688 -70.226562 67.269531 -68.476562 68.4375 -66.6875 C 69.21875 -65.363281 69.820312 -64.054688 70.25 -62.765625 C 70.675781 -61.484375 70.890625 -60.21875 70.890625 -58.96875 C 70.890625 -57.257812 70.554688 -55.644531 69.890625 -54.125 C 69.234375 -52.601562 68.335938 -51.28125 67.203125 -50.15625 C 66.078125 -49.03125 64.753906 -48.132812 63.234375 -47.46875 C 61.710938 -46.8125 60.097656 -46.484375 58.390625 -46.484375 C 56.679688 -46.484375 55.066406 -46.8125 53.546875 -47.46875 C 52.023438 -48.132812 50.695312 -49.03125 49.5625 -50.15625 C 48.4375 -51.28125 47.539062 -52.601562 46.875 -54.125 C 46.21875 -55.644531 45.890625 -57.257812 45.890625 -58.96875 C 45.890625 -60.914062 46.238281 -62.53125 46.9375 -63.8125 C 47.644531 -65.101562 48.40625 -66.273438 49.21875 -67.328125 C 50.039062 -68.378906 50.820312 -69.425781 51.5625 -70.46875 C 52.300781 -71.519531 52.707031 -72.828125 52.78125 -74.390625 Z M 52.90625 -10.75 C 56.175781 -10.75 59.40625 -11.46875 62.59375 -12.90625 C 65.78125 -14.34375 68.546875 -16.425781 70.890625 -19.15625 C 67.617188 -13.3125 63.253906 -8.65625 57.796875 -5.1875 C 52.347656 -1.726562 46.316406 0 39.703125 0 C 34.640625 0 29.867188 -1.066406 25.390625 -3.203125 C 20.921875 -5.347656 17.007812 -8.269531 13.65625 -11.96875 C 10.3125 -15.664062 7.6875 -20.003906 5.78125 -24.984375 C 3.875 -29.972656 2.921875 -35.269531 2.921875 -40.875 C 2.921875 -46.476562 3.875 -51.769531 5.78125 -56.75 C 7.6875 -61.738281 10.3125 -66.082031 13.65625 -69.78125 C 17.007812 -73.476562 20.921875 -76.394531 25.390625 -78.53125 C 29.867188 -80.675781 34.640625 -81.75 39.703125 -81.75 C 37.992188 -81.75 36.300781 -80.867188 34.625 -79.109375 C 32.945312 -77.359375 31.425781 -75.023438 30.0625 -72.109375 C 28.707031 -69.191406 27.617188 -65.765625 26.796875 -61.828125 C 25.984375 -57.898438 25.578125 -53.796875 25.578125 -49.515625 C 25.578125 -44.140625 26.296875 -39.097656 27.734375 -34.390625 C 29.171875 -29.679688 31.113281 -25.570312 33.5625 -22.0625 C 36.019531 -18.5625 38.921875 -15.800781 42.265625 -13.78125 C 45.617188 -11.757812 49.164062 -10.75 52.90625 -10.75 Z M 52.90625 -10.75 "/></g></g></g><g fill="#000000" fill-opacity="1"><g transform="translate(126.12964, 216.749986)"><g><path d="M 18.6875 -12.96875 C 18.6875 -11.175781 19.015625 -9.476562 19.671875 -7.875 C 20.335938 -6.28125 21.253906 -4.898438 22.421875 -3.734375 C 23.585938 -2.566406 24.945312 -1.648438 26.5 -0.984375 C 28.0625 -0.328125 29.738281 0 31.53125 0 L 2.921875 0 C 4.628906 -0.226562 6.28125 -0.769531 7.875 -1.625 C 9.476562 -2.488281 10.976562 -3.5625 12.375 -4.84375 C 13.78125 -6.125 15.023438 -7.539062 16.109375 -9.09375 C 17.203125 -10.65625 18.0625 -12.253906 18.6875 -13.890625 Z M 41.109375 0 C 42.742188 0 44.144531 -0.679688 45.3125 -2.046875 C 46.476562 -3.410156 47.0625 -4.945312 47.0625 -6.65625 C 47.0625 -6.96875 47.0625 -7.28125 47.0625 -7.59375 C 47.0625 -7.90625 46.984375 -8.21875 46.828125 -8.53125 L 43.4375 -18.328125 L 43.203125 -19.03125 L 34.921875 -42.96875 C 34.367188 -44.289062 33.394531 -44.953125 32 -44.953125 C 30.675781 -44.953125 29.738281 -44.289062 29.1875 -42.96875 L 43.203125 -81.75 L 56.171875 -44.5 C 56.710938 -42.9375 57.332031 -41.082031 58.03125 -38.9375 C 58.738281 -36.800781 59.363281 -34.957031 59.90625 -33.40625 L 69.484375 -6.078125 C 70.023438 -4.515625 70.976562 -3.109375 72.34375 -1.859375 C 73.707031 -0.617188 75.285156 0 77.078125 0 Z M 41.109375 0 "/></g></g></g><g fill="#000000" fill-opacity="1"><g transform="translate(206.122085, 216.749986)"><g><path d="M 30.484375 -7.703125 C 30.484375 -5.753906 31.160156 -3.984375 32.515625 -2.390625 C 33.878906 -0.796875 35.578125 0 37.609375 0 L 2.921875 0 C 4.867188 0 6.519531 -0.796875 7.875 -2.390625 C 9.238281 -3.984375 9.921875 -5.753906 9.921875 -7.703125 L 9.921875 -74.046875 C 9.921875 -75.984375 9.238281 -77.75 7.875 -79.34375 C 6.519531 -80.945312 4.867188 -81.75 2.921875 -81.75 L 37.609375 -81.75 C 35.578125 -81.75 33.878906 -80.945312 32.515625 -79.34375 C 31.160156 -77.75 30.484375 -75.984375 30.484375 -74.046875 Z M 30.484375 -7.703125 "/></g></g></g><g fill="#000000" fill-opacity="1"><g transform="translate(246.643803, 216.749986)"><g><path d="M 48.34375 -7.703125 C 48.34375 -5.753906 49.023438 -3.984375 50.390625 -2.390625 C 51.753906 -0.796875 53.410156 0 55.359375 0 L 20.671875 0 C 22.691406 0 24.363281 -0.796875 25.6875 -2.390625 C 27.007812 -3.984375 27.671875 -5.753906 27.671875 -7.703125 L 27.671875 -81.75 L 48.34375 -81.75 Z M 25.109375 -81.75 C 22.148438 -81.4375 19.484375 -80.65625 17.109375 -79.40625 C 14.734375 -78.164062 12.609375 -76.550781 10.734375 -74.5625 C 8.867188 -72.582031 7.296875 -70.328125 6.015625 -67.796875 C 4.734375 -65.265625 3.703125 -62.554688 2.921875 -59.671875 L 2.921875 -81.75 Z M 73.109375 -81.75 L 73.109375 -59.671875 C 72.398438 -62.554688 71.382812 -65.265625 70.0625 -67.796875 C 68.738281 -70.328125 67.160156 -72.582031 65.328125 -74.5625 C 63.503906 -76.550781 61.382812 -78.164062 58.96875 -79.40625 C 56.5625 -80.65625 53.914062 -81.4375 51.03125 -81.75 Z M 73.109375 -81.75 "/></g></g></g></svg>